<?xml version="1.0" encoding="UTF-8" standalone="no"?>
<svg
   xmlns:dc="http://purl.org/dc/elements/1.1/"
   xmlns:cc="http://creativecommons.org/ns#"
   xmlns:rdf="http://www.w3.org/1999/02/22-rdf-syntax-ns#"
   xmlns:svg="http://www.w3.org/2000/svg"
   xmlns="http://www.w3.org/2000/svg"
   xmlns:sodipodi="http://sodipodi.sourceforge.net/DTD/sodipodi-0.dtd"
   xmlns:inkscape="http://www.inkscape.org/namespaces/inkscape"
   viewBox="0 0 512 512"
   style="height: 512px; width: 512px;"
   version="1.1"
   id="svg85"
   sodipodi:docname="compass.svg"
   inkscape:version="0.92.4 (5da689c313, 2019-01-14)">
  <metadata
     id="metadata91">
    <rdf:RDF>
      <cc:Work
         rdf:about="">
        <dc:format>image/svg+xml</dc:format>
        <dc:type
           rdf:resource="http://purl.org/dc/dcmitype/StillImage" />
        <dc:title></dc:title>
      </cc:Work>
    </rdf:RDF>
  </metadata>
  <defs
     id="defs89" />
  <sodipodi:namedview
     pagecolor="#ffffff"
     bordercolor="#666666"
     borderopacity="1"
     objecttolerance="10"
     gridtolerance="10"
     guidetolerance="10"
     inkscape:pageopacity="0"
     inkscape:pageshadow="2"
     inkscape:window-width="1920"
     inkscape:window-height="1017"
     id="namedview87"
     showgrid="false"
     inkscape:zoom="0.921875"
     inkscape:cx="215.47027"
     inkscape:cy="309.04324"
     inkscape:window-x="1912"
     inkscape:window-y="-8"
     inkscape:window-maximized="1"
     inkscape:current-layer="svg85" />
  <g
     id="g2344"
     transform="matrix(18.061876,0,0,-18.06315,512,432.01637)">
    <path
       d="m 0,0 c 0,-2.446 -1.983,-4.428 -4.429,-4.428 h -19.489 c -2.444,0 -4.429,1.982 -4.429,4.428 v 19.489 c 0,2.445 1.985,4.428 4.429,4.428 H -4.429 C -1.983,23.917 0,21.934 0,19.489 Z"
       style="fill:#231f20;fill-opacity:1;fill-rule:nonzero;stroke:none"
       id="path2346"
       inkscape:connector-curvature="0" />
  </g>
  <g
     transform="translate(-1.581457,1.8155083)"
     class=""
     id="g3876">
    <path
       style="fill:#ffffff;fill-opacity:1"
       inkscape:connector-curvature="0"
       d="m 203.97,23 -18.032,4.844 11.656,43.468 c -25.837,8.076 -50.32,21.653 -71.594,40.75 l -31.47,-31.468 -13.218,13.22 31.376,31.374 c -19.467,21.125 -33.414,45.53 -41.813,71.343 l -42.313,-11.343 -4.843,18.063 42.25,11.313 c -6.057,27.3 -6.157,55.656 -0.345,83 l -41.904,11.216 4.843,18.064 41.812,-11.22 c 6.693,21.225 17.114,41.525 31.25,59.876 l -29.97,52.688 -16.81,29.593 29.56,-16.842 52.657,-29.97 c 18.41,14.216 38.784,24.69 60.094,31.407 l -11.22,41.844 18.033,4.81 11.218,-41.905 c 27.345,5.808 55.698,5.686 83,-0.375 l 11.312,42.28 18.063,-4.81 -11.344,-42.376 c 25.812,-8.4 50.217,-22.315 71.342,-41.78 l 31.375,31.373 13.22,-13.218 -31.47,-31.47 c 19.09,-21.266 32.643,-45.738 40.72,-71.563 l 43.53,11.657 4.813,-18.063 -43.625,-11.686 c 5.68,-27.044 5.576,-55.06 -0.344,-82.063 l 43.97,-11.78 -4.813,-18.063 L 440.908,197 c -6.73,-20.866 -17.08,-40.79 -31.032,-58.844 l 29.97,-52.656 16.842,-29.563 -29.593,16.844 -52.656,29.97 C 356.441,88.876 336.565,78.553 315.782,71.845 l 11.783,-44 L 309.5,23 297.72,66.97 c -27,-5.925 -55.02,-6.05 -82.064,-0.376 z m 201.56,85 -108.28,190.313 -0.75,0.437 -40.844,-40.875 -148.72,148.72 -2.186,1.25 109.125,-191.75 41.78,41.78 L 405.532,108 Z m -149.686,10.594 c 21.858,0 43.717,5.166 63.594,15.47 l -116.625,66.342 -2.22,1.28 -1.28,2.22 -66.25,116.406 c -26.942,-52.04 -18.616,-117.603 25.03,-161.25 26.99,-26.988 62.38,-40.468 97.75,-40.468 z m 122.72,74.594 c 26.994,52.054 18.67,117.672 -25.002,161.343 -43.66,43.662 -109.263,52.005 -161.312,25.033 l 116.438,-66.282 2.25,-1.25 1.25,-2.25 66.375,-116.592 z"
       id="path3874" />
  </g>
</svg>
