<?xml version="1.0" encoding="UTF-8" standalone="no"?>
<!-- Created with Inkscape (http://www.inkscape.org/) -->

<svg
   xmlns:dc="http://purl.org/dc/elements/1.1/"
   xmlns:cc="http://creativecommons.org/ns#"
   xmlns:rdf="http://www.w3.org/1999/02/22-rdf-syntax-ns#"
   xmlns:svg="http://www.w3.org/2000/svg"
   xmlns="http://www.w3.org/2000/svg"
   xmlns:sodipodi="http://sodipodi.sourceforge.net/DTD/sodipodi-0.dtd"
   xmlns:inkscape="http://www.inkscape.org/namespaces/inkscape"
   width="7.9995885mm"
   height="8.0002947mm"
   viewBox="0 0 7.9995885 8.0002947"
   version="1.1"
   id="svg12688"
   inkscape:version="0.92.4 (5da689c313, 2019-01-14)"
   sodipodi:docname="equipment.svg">
  <defs
     id="defs12682" />
  <sodipodi:namedview
     id="base"
     pagecolor="#ffffff"
     bordercolor="#666666"
     borderopacity="1.0"
     inkscape:pageopacity="0.0"
     inkscape:pageshadow="2"
     inkscape:zoom="0.35"
     inkscape:cx="-334.88267"
     inkscape:cy="-153.45275"
     inkscape:document-units="mm"
     inkscape:current-layer="layer1"
     showgrid="false"
     inkscape:window-width="1920"
     inkscape:window-height="1017"
     inkscape:window-x="1912"
     inkscape:window-y="-8"
     inkscape:window-maximized="1" />
  <metadata
     id="metadata12685">
    <rdf:RDF>
      <cc:Work
         rdf:about="">
        <dc:format>image/svg+xml</dc:format>
        <dc:type
           rdf:resource="http://purl.org/dc/dcmitype/StillImage" />
        <dc:title></dc:title>
      </cc:Work>
    </rdf:RDF>
  </metadata>
  <g
     inkscape:label="Layer 1"
     inkscape:groupmode="layer"
     id="layer1"
     transform="translate(-83.690682,-100.232)">
    <g
       transform="matrix(0.35277777,0,0,-0.35277777,91.690271,106.98205)"
       id="g2424">
      <path
         inkscape:connector-curvature="0"
         id="path2426"
         style="fill:#231f20;fill-opacity:1;fill-rule:nonzero;stroke:none"
         d="m 0,0 c 0,-1.957 -1.584,-3.544 -3.543,-3.544 h -15.59 c -1.957,0 -3.543,1.587 -3.543,3.544 v 15.59 c 0,1.956 1.586,3.544 3.543,3.544 h 15.59 C -1.584,19.134 0,17.546 0,15.59 Z" />
    </g>
    <g
       transform="matrix(0.35277777,0,0,-0.35277777,84.910307,101.25695)"
       id="g2428">
      <path
         inkscape:connector-curvature="0"
         id="path2430"
         style="fill:#ffffff;fill-opacity:1;fill-rule:nonzero;stroke:none"
         d="m 0,0 0.822,-1.174 1.532,-9.484 -0.73,-0.149 -1.91,9.349 z" />
    </g>
    <g
       transform="matrix(0.35277777,0,0,-0.35277777,85.870109,104.84675)"
       id="g2432">
      <path
         inkscape:connector-curvature="0"
         id="path2434"
         style="fill:#ffffff;fill-opacity:1;fill-rule:nonzero;stroke:none"
         d="m 0,0 0.16,-0.783 -1.568,-0.321 -0.137,0.672 c 0,0 -0.75,-0.326 -0.613,-1 0.195,-0.951 3.398,-0.356 3.191,0.653 C 0.896,-0.107 0,0 0,0" />
    </g>
    <g
       transform="matrix(0.35277777,0,0,-0.35277777,85.978977,106.16159)"
       id="g2436">
      <path
         inkscape:connector-curvature="0"
         id="path2438"
         style="fill:#ffffff;fill-opacity:1;fill-rule:nonzero;stroke:none"
         d="M 0,0 -0.713,-0.146 -1.039,1.45 -0.324,1.597 Z" />
    </g>
    <g
       transform="matrix(0.35277777,0,0,-0.35277777,87.87618,101.65489)"
       id="g2440">
      <path
         inkscape:connector-curvature="0"
         id="path2442"
         style="fill:#231f20;fill-opacity:1;fill-rule:nonzero;stroke:none"
         d="m 0,0 v -0.469 c 0,0 0.681,0.425 1.831,0.425 1.151,0 1.747,-0.298 1.747,-0.298 v 0.426 c 0,0 -0.851,0.385 -1.789,0.385 C 0.852,0.469 0,0 0,0" />
    </g>
    <g
       transform="matrix(0.35277777,0,0,-0.35277777,87.863446,101.71758)"
       id="g2448">
      <path
         inkscape:connector-curvature="0"
         id="path2450"
         style="fill:#ffffff;fill-opacity:1;fill-rule:nonzero;stroke:none"
         d="m 0,0 c 0,0 1.475,-1.608 3.707,-1.235 0,0 2.344,-0.983 2.25,-1.261 -0.092,-0.277 -2.818,-0.543 -5,0.377 C -1.227,-1.2 -2.942,0.146 -2.807,0.408 -2.672,0.67 0,0 0,0" />
    </g>
    <g
       transform="matrix(0.35277777,0,0,-0.35277777,87.614031,103.68438)"
       id="g2452">
      <path
         inkscape:connector-curvature="0"
         id="path2454"
         style="fill:#ffffff;fill-opacity:1;fill-rule:nonzero;stroke:none"
         d="m 0,0 c 0,0 -0.758,0.978 -1.617,0.927 0,0 0.724,1.391 3.013,0.933 C 3.688,1.403 2.777,3.127 4.912,1.638 L 3.76,0.122 c 0,0 7.098,-3.603 5.109,-10.539 0,0 -1.812,1.301 -3.848,0.21 -2.036,-1.089 -4.505,-1.235 -7.268,-0.053 0,0 -0.56,0.344 -1.226,-0.233 0,0 -0.236,3.362 2.312,6.438 C 0.949,-1.506 0,0 0,0" />
    </g>
    <g
       transform="matrix(0.35277777,0,0,-0.35277777,89.688647,104.73136)"
       id="g2456">
      <path
         inkscape:connector-curvature="0"
         id="path2458"
         style="fill:#231f20;fill-opacity:1;fill-rule:nonzero;stroke:none"
         d="M 0,0 C 0.969,-1.469 2.259,-4.357 0.753,-7.489 0.68,-7.643 -0.27,-7.931 -0.27,-7.931 c 0,0 2.421,2.84 -0.321,8.127 C -1.521,1.989 0,0 0,0" />
    </g>
    <g
       transform="matrix(0.35277777,0,0,-0.35277777,89.073367,103.54433)"
       id="g2460">
      <path
         inkscape:connector-curvature="0"
         id="path2462"
         style="fill:#231f20;fill-opacity:1;fill-rule:nonzero;stroke:none"
         d="M 0,0 C 0,0 -0.477,0.478 -1.068,0.263 -1.659,0.047 -1.916,0.047 -2.4,-0.06 c -0.483,-0.108 -0.557,-0.592 -0.557,-0.592 0,0 1.08,0.367 1.566,0.391 0.887,0.039 1.553,-0.102 2.037,-0.497 z" />
    </g>
  </g>
</svg>
