<?xml version="1.0" encoding="UTF-8" standalone="no"?>
<!-- Created with Inkscape (http://www.inkscape.org/) -->

<svg
   xmlns:dc="http://purl.org/dc/elements/1.1/"
   xmlns:cc="http://creativecommons.org/ns#"
   xmlns:rdf="http://www.w3.org/1999/02/22-rdf-syntax-ns#"
   xmlns:svg="http://www.w3.org/2000/svg"
   xmlns="http://www.w3.org/2000/svg"
   xmlns:sodipodi="http://sodipodi.sourceforge.net/DTD/sodipodi-0.dtd"
   xmlns:inkscape="http://www.inkscape.org/namespaces/inkscape"
   width="10.000545mm"
   height="9.9998388mm"
   viewBox="0 0 10.000545 9.9998388"
   version="1.1"
   id="svg12282"
   inkscape:version="0.92.4 (5da689c313, 2019-01-14)"
   sodipodi:docname="hp.svg">
  <defs
     id="defs12276" />
  <sodipodi:namedview
     id="base"
     pagecolor="#ffffff"
     bordercolor="#666666"
     borderopacity="1.0"
     inkscape:pageopacity="0.0"
     inkscape:pageshadow="2"
     inkscape:zoom="0.35"
     inkscape:cx="-339.67276"
     inkscape:cy="358.89732"
     inkscape:document-units="mm"
     inkscape:current-layer="layer1"
     showgrid="false"
     inkscape:window-width="1920"
     inkscape:window-height="1017"
     inkscape:window-x="1912"
     inkscape:window-y="-8"
     inkscape:window-maximized="1" />
  <metadata
     id="metadata12279">
    <rdf:RDF>
      <cc:Work
         rdf:about="">
        <dc:format>image/svg+xml</dc:format>
        <dc:type
           rdf:resource="http://purl.org/dc/dcmitype/StillImage" />
        <dc:title></dc:title>
      </cc:Work>
    </rdf:RDF>
  </metadata>
  <g
     inkscape:label="Layer 1"
     inkscape:groupmode="layer"
     id="layer1"
     transform="translate(-84.958061,-233.79174)">
    <g
       transform="matrix(0.35277777,0,0,-0.35277777,94.958605,242.22913)"
       id="g2464">
      <path
         inkscape:connector-curvature="0"
         id="path2466"
         style="fill:#231f20;fill-opacity:1;fill-rule:nonzero;stroke:none"
         d="m 0,0 c 0,-2.445 -1.982,-4.429 -4.43,-4.429 h -19.487 c -2.447,0 -4.431,1.984 -4.431,4.429 v 19.488 c 0,2.445 1.984,4.429 4.431,4.429 H -4.43 c 2.448,0 4.43,-1.984 4.43,-4.429 z" />
    </g>
    <g
       transform="matrix(0.35277777,0,0,-0.35277777,91.489743,236.32783)"
       id="g2468">
      <path
         inkscape:connector-curvature="0"
         id="path2470"
         style="fill:#ffffff;fill-opacity:1;fill-rule:nonzero;stroke:none"
         d="m 0,0 c 4.26,0 4.366,-4.58 4.366,-4.58 0,-6.711 -8.786,-10.172 -8.786,-10.172 0,0 -8.628,3.461 -8.628,10.172 0,0 0.108,4.58 4.367,4.58 2.609,0 4.261,-2.929 4.261,-2.929 0,0 1.81,2.929 4.42,2.929" />
    </g>
  </g>
</svg>
