<?xml version="1.0" encoding="UTF-8" standalone="no"?>
<!-- Created with Inkscape (http://www.inkscape.org/) -->

<svg
   xmlns:dc="http://purl.org/dc/elements/1.1/"
   xmlns:cc="http://creativecommons.org/ns#"
   xmlns:rdf="http://www.w3.org/1999/02/22-rdf-syntax-ns#"
   xmlns:svg="http://www.w3.org/2000/svg"
   xmlns="http://www.w3.org/2000/svg"
   xmlns:sodipodi="http://sodipodi.sourceforge.net/DTD/sodipodi-0.dtd"
   xmlns:inkscape="http://www.inkscape.org/namespaces/inkscape"
   width="10.000897mm"
   height="9.999486mm"
   viewBox="0 0 10.000897 9.999486"
   version="1.1"
   id="svg12316"
   inkscape:version="0.92.4 (5da689c313, 2019-01-14)"
   sodipodi:docname="mp.svg">
  <defs
     id="defs12310" />
  <sodipodi:namedview
     id="base"
     pagecolor="#ffffff"
     bordercolor="#666666"
     borderopacity="1.0"
     inkscape:pageopacity="0.0"
     inkscape:pageshadow="2"
     inkscape:zoom="0.35"
     inkscape:cx="646.04219"
     inkscape:cy="436.03951"
     inkscape:document-units="mm"
     inkscape:current-layer="layer1"
     showgrid="false"
     inkscape:window-width="1920"
     inkscape:window-height="1017"
     inkscape:window-x="1912"
     inkscape:window-y="-8"
     inkscape:window-maximized="1" />
  <metadata
     id="metadata12313">
    <rdf:RDF>
      <cc:Work
         rdf:about="">
        <dc:format>image/svg+xml</dc:format>
        <dc:type
           rdf:resource="http://purl.org/dc/dcmitype/StillImage" />
        <dc:title></dc:title>
      </cc:Work>
    </rdf:RDF>
  </metadata>
  <g
     inkscape:label="Layer 1"
     inkscape:groupmode="layer"
     id="layer1"
     transform="translate(175.84569,-254.20263)">
    <g
       transform="matrix(0.35277777,0,0,-0.35277777,-165.84479,262.64002)"
       id="g2472">
      <path
         inkscape:connector-curvature="0"
         id="path2474"
         style="fill:#231f20;fill-opacity:1;fill-rule:nonzero;stroke:none"
         d="m 0,0 c 0,-2.445 -1.982,-4.428 -4.43,-4.428 h -19.487 c -2.447,0 -4.432,1.983 -4.432,4.428 v 19.489 c 0,2.445 1.985,4.428 4.432,4.428 H -4.43 c 2.448,0 4.43,-1.983 4.43,-4.428 z" />
    </g>
    <g
       transform="matrix(0.35277777,0,0,-0.35277777,-171.40587,258.07078)"
       id="g2476">
      <path
         inkscape:connector-curvature="0"
         id="path2478"
         style="fill:#ffffff;fill-opacity:1;fill-rule:evenodd;stroke:none"
         d="m 0,0 c -2.522,1.219 -5.637,2.723 -5.637,2.723 l -1.029,0.513 0.732,-0.883 c 0,0 2.137,-2.713 3.842,-4.879 -2.563,-1.234 -5.69,-2.738 -5.69,-2.738 l -1.096,-0.469 1.2,0.006 c 0,0 3.498,-0.012 6.36,-0.021 -0.634,-2.764 -1.416,-6.169 -1.416,-6.169 l -0.301,-1.163 0.73,0.956 c 0,0 2.141,2.716 3.886,4.93 1.831,-2.324 4.03,-5.115 4.03,-5.115 l 0.691,-0.85 -0.262,1.053 c 0,0 -0.778,3.477 -1.418,6.338 2.82,-0.01 6.296,-0.021 6.296,-0.021 l 1.14,10e-4 -1.033,0.461 c 0,0 -3.158,1.526 -5.771,2.788 1.727,2.189 3.859,4.892 3.859,4.892 L 9.858,3.245 8.816,2.723 c 0,0 -3.062,-1.473 -5.503,-2.647 C 2.69,2.863 1.922,6.301 1.922,6.301 L 1.684,7.433 1.447,6.302 C 1.447,6.302 0.654,2.853 0,0 m -4.898,1.827 c 0.513,-0.249 2.626,-1.27 4.787,-2.314 -0.131,-0.57 -0.142,-0.619 -0.281,-1.221 -0.618,-0.296 -0.667,-0.321 -1.251,-0.601 -1.458,1.851 -2.91,3.694 -3.255,4.136 M 0.339,-0.704 C 0.654,-0.856 0.688,-0.872 1.016,-1.031 0.594,-1.233 0.592,-1.235 0.17,-1.438 c 0.082,0.358 0.09,0.389 0.169,0.734 m 1.342,5.85 C 1.808,4.579 2.328,2.247 2.863,-0.141 2.271,-0.426 2.209,-0.456 1.576,-0.762 1.023,-0.495 0.972,-0.469 0.449,-0.217 1.011,2.23 1.548,4.566 1.681,5.146 m -3.465,-8.063 c 0.397,-0.505 0.44,-0.558 0.862,-1.097 -0.14,-0.612 -0.152,-0.668 -0.285,-1.248 -2.454,0.009 -4.828,0.016 -5.41,0.018 0.523,0.252 2.638,1.269 4.833,2.327 m 1.254,0.602 c -0.125,-0.543 -0.126,-0.547 -0.25,-1.09 -0.269,0.342 -0.297,0.377 -0.555,0.703 0.378,0.182 0.411,0.199 0.805,0.387 m -0.004,-2.189 c 0.299,-0.379 0.3,-0.381 0.598,-0.762 -0.375,0.002 -0.41,0.002 -0.774,0.002 0.082,0.354 0.092,0.391 0.176,0.76 m 2.108,3.203 C 2.433,-1.715 2.453,-1.725 3.311,-2.141 3.49,-2.942 3.494,-2.955 3.674,-3.757 3.081,-4.505 3.07,-4.522 2.478,-5.274 1.59,-5.27 1.572,-5.27 0.687,-5.268 c -0.538,0.683 -0.547,0.693 -1.082,1.373 0.211,0.914 0.215,0.934 0.426,1.851 0.767,0.368 0.78,0.375 1.543,0.743 m 1.399,0.673 c 0.094,-0.423 0.103,-0.464 0.203,-0.906 -0.518,0.25 -0.522,0.252 -1.04,0.502 0.407,0.196 0.448,0.217 0.837,0.404 M 8.078,1.829 C 7.727,1.381 6.283,-0.45 4.806,-2.322 4.305,-2.08 4.262,-2.059 3.734,-1.805 3.581,-1.119 3.567,-1.057 3.424,-0.412 5.506,0.589 7.578,1.587 8.078,1.829 M 3.869,-2.411 C 4.175,-2.557 4.201,-2.571 4.497,-2.712 4.295,-2.971 4.272,-2.999 4.062,-3.266 3.966,-2.838 3.966,-2.836 3.869,-2.411 M 3.81,-4.371 c 0.1,-0.444 0.108,-0.481 0.204,-0.908 -0.43,0.001 -0.471,0.001 -0.918,0.003 0.355,0.451 0.357,0.455 0.714,0.905 m 1.135,1.441 c 2.238,-1.08 4.368,-2.11 4.904,-2.368 -0.58,0.002 -2.926,0.009 -5.336,0.017 -0.148,0.656 -0.159,0.709 -0.314,1.404 0.365,0.464 0.4,0.507 0.746,0.947 m -5.764,-2.82 c 0.59,-0.001 0.643,-0.001 1.268,-0.003 0.407,-0.517 0.438,-0.556 0.824,-1.048 -1.492,-1.889 -2.927,-3.709 -3.291,-4.172 0.131,0.57 0.658,2.865 1.199,5.223 M 1.07,-5.755 C 1.581,-5.757 1.584,-5.757 2.095,-5.76 1.845,-6.075 1.822,-6.104 1.584,-6.408 1.341,-6.1 1.322,-6.075 1.07,-5.755 m 1.643,-0.007 c 0.695,-0.002 0.755,-0.002 1.409,-0.004 0.551,-2.459 1.079,-4.822 1.209,-5.401 -0.372,0.472 -1.863,2.366 -3.438,4.366 0.38,0.483 0.416,0.529 0.82,1.039" />
    </g>
    <g
       transform="matrix(0.35277777,0,0,-0.35277777,-171.40587,258.07078)"
       id="g2480">
      <path
         inkscape:connector-curvature="0"
         id="path2482"
         style="fill:none;stroke:#ffffff;stroke-width:0.213;stroke-linecap:round;stroke-linejoin:round;stroke-miterlimit:4;stroke-dasharray:none;stroke-opacity:1"
         d="m 0,0 c -2.522,1.219 -5.637,2.723 -5.637,2.723 l -1.029,0.513 0.732,-0.883 c 0,0 2.137,-2.713 3.842,-4.879 -2.563,-1.234 -5.69,-2.738 -5.69,-2.738 l -1.096,-0.469 1.2,0.006 c 0,0 3.498,-0.012 6.36,-0.021 -0.634,-2.764 -1.416,-6.169 -1.416,-6.169 l -0.301,-1.163 0.73,0.956 c 0,0 2.141,2.716 3.886,4.93 1.831,-2.324 4.03,-5.115 4.03,-5.115 l 0.691,-0.85 -0.262,1.053 c 0,0 -0.778,3.477 -1.418,6.338 2.82,-0.01 6.296,-0.021 6.296,-0.021 l 1.14,10e-4 -1.033,0.461 c 0,0 -3.158,1.526 -5.771,2.788 1.727,2.189 3.859,4.892 3.859,4.892 L 9.858,3.245 8.816,2.723 c 0,0 -3.062,-1.473 -5.503,-2.647 C 2.69,2.863 1.922,6.301 1.922,6.301 L 1.684,7.433 1.447,6.302 C 1.447,6.302 0.654,2.853 0,0 Z m -4.898,1.827 c 0.513,-0.249 2.626,-1.27 4.787,-2.314 -0.131,-0.57 -0.142,-0.619 -0.281,-1.221 -0.618,-0.296 -0.667,-0.321 -1.251,-0.601 -1.458,1.851 -2.91,3.694 -3.255,4.136 z M 0.339,-0.704 C 0.654,-0.856 0.688,-0.872 1.016,-1.031 0.594,-1.233 0.592,-1.235 0.17,-1.438 c 0.082,0.358 0.09,0.389 0.169,0.734 z m 1.342,5.85 C 1.808,4.579 2.328,2.247 2.863,-0.141 2.271,-0.426 2.209,-0.456 1.576,-0.762 1.023,-0.495 0.972,-0.469 0.449,-0.217 1.011,2.23 1.548,4.566 1.681,5.146 Z m -3.465,-8.063 c 0.397,-0.505 0.44,-0.558 0.862,-1.097 -0.14,-0.612 -0.152,-0.668 -0.285,-1.248 -2.454,0.009 -4.828,0.016 -5.41,0.018 0.523,0.252 2.638,1.269 4.833,2.327 z m 1.254,0.602 c -0.125,-0.543 -0.126,-0.547 -0.25,-1.09 -0.269,0.342 -0.297,0.377 -0.555,0.703 0.378,0.182 0.411,0.199 0.805,0.387 z m -0.004,-2.189 c 0.299,-0.379 0.3,-0.381 0.598,-0.762 -0.375,0.002 -0.41,0.002 -0.774,0.002 0.082,0.354 0.092,0.391 0.176,0.76 z m 2.108,3.203 C 2.433,-1.715 2.453,-1.725 3.311,-2.141 3.49,-2.942 3.494,-2.955 3.674,-3.757 3.081,-4.505 3.07,-4.522 2.478,-5.274 1.59,-5.27 1.572,-5.27 0.687,-5.268 c -0.538,0.683 -0.547,0.693 -1.082,1.373 0.211,0.914 0.215,0.934 0.426,1.851 0.767,0.368 0.78,0.375 1.543,0.743 z m 1.399,0.673 c 0.094,-0.423 0.103,-0.464 0.203,-0.906 -0.518,0.25 -0.522,0.252 -1.04,0.502 0.407,0.196 0.448,0.217 0.837,0.404 z M 8.078,1.829 C 7.727,1.381 6.283,-0.45 4.806,-2.322 4.305,-2.08 4.262,-2.059 3.734,-1.805 3.581,-1.119 3.567,-1.057 3.424,-0.412 5.506,0.589 7.578,1.587 8.078,1.829 Z M 3.869,-2.411 C 4.175,-2.557 4.201,-2.571 4.497,-2.712 4.295,-2.971 4.272,-2.999 4.062,-3.266 3.966,-2.838 3.966,-2.836 3.869,-2.411 Z M 3.81,-4.371 c 0.1,-0.444 0.108,-0.481 0.204,-0.908 -0.43,0.001 -0.471,0.001 -0.918,0.003 0.355,0.451 0.357,0.455 0.714,0.905 z m 1.135,1.441 c 2.238,-1.08 4.368,-2.11 4.904,-2.368 -0.58,0.002 -2.926,0.009 -5.336,0.017 -0.148,0.656 -0.159,0.709 -0.314,1.404 0.365,0.464 0.4,0.507 0.746,0.947 z m -5.764,-2.82 c 0.59,-0.001 0.643,-0.001 1.268,-0.003 0.407,-0.517 0.438,-0.556 0.824,-1.048 -1.492,-1.889 -2.927,-3.709 -3.291,-4.172 0.131,0.57 0.658,2.865 1.199,5.223 z M 1.07,-5.755 C 1.581,-5.757 1.584,-5.757 2.095,-5.76 1.845,-6.075 1.822,-6.104 1.584,-6.408 1.341,-6.1 1.322,-6.075 1.07,-5.755 Z m 1.643,-0.007 c 0.695,-0.002 0.755,-0.002 1.409,-0.004 0.551,-2.459 1.079,-4.822 1.209,-5.401 -0.372,0.472 -1.863,2.366 -3.438,4.366 0.38,0.483 0.416,0.529 0.82,1.039 z" />
    </g>
  </g>
</svg>
