<?xml version="1.0" encoding="UTF-8" standalone="no"?>
<!-- Created with Inkscape (http://www.inkscape.org/) -->

<svg
   xmlns:dc="http://purl.org/dc/elements/1.1/"
   xmlns:cc="http://creativecommons.org/ns#"
   xmlns:rdf="http://www.w3.org/1999/02/22-rdf-syntax-ns#"
   xmlns:svg="http://www.w3.org/2000/svg"
   xmlns="http://www.w3.org/2000/svg"
   xmlns:sodipodi="http://sodipodi.sourceforge.net/DTD/sodipodi-0.dtd"
   xmlns:inkscape="http://www.inkscape.org/namespaces/inkscape"
   width="19.999678mm"
   height="19.999678mm"
   viewBox="0 0 19.999678 19.999678"
   version="1.1"
   id="svg11858"
   inkscape:version="0.92.4 (5da689c313, 2019-01-14)"
   sodipodi:docname="dex.svg">
  <defs
     id="defs11852" />
  <sodipodi:namedview
     id="base"
     pagecolor="#ffffff"
     bordercolor="#666666"
     borderopacity="1.0"
     inkscape:pageopacity="0.0"
     inkscape:pageshadow="2"
     inkscape:zoom="7.9195959"
     inkscape:cx="30.41804"
     inkscape:cy="38.098206"
     inkscape:document-units="mm"
     inkscape:current-layer="layer1"
     showgrid="false"
     inkscape:window-width="1920"
     inkscape:window-height="1017"
     inkscape:window-x="1912"
     inkscape:window-y="-8"
     inkscape:window-maximized="1" />
  <metadata
     id="metadata11855">
    <rdf:RDF>
      <cc:Work
         rdf:about="">
        <dc:format>image/svg+xml</dc:format>
        <dc:type
           rdf:resource="http://purl.org/dc/dcmitype/StillImage" />
        <dc:title />
      </cc:Work>
    </rdf:RDF>
  </metadata>
  <g
     inkscape:label="Layer 1"
     inkscape:groupmode="layer"
     id="layer1"
     transform="translate(-82.226353,-101.79183)">
    <g
       transform="matrix(0.35277777,0,0,-0.35277777,102.22603,118.66625)"
       id="g2736">
      <path
         inkscape:connector-curvature="0"
         id="path2738"
         style="fill:#000000;fill-opacity:1;fill-rule:nonzero;stroke:none"
         d="m 0,0 c 0,-4.894 -3.965,-8.859 -8.857,-8.859 h -38.977 c -4.892,0 -8.858,3.965 -8.858,8.859 v 38.976 c 0,4.89 3.966,8.857 8.858,8.857 H -8.857 C -3.965,47.833 0,43.866 0,38.976 Z" />
    </g>
    <g
       transform="matrix(0.35277777,0,0,-0.35277777,93.765572,112.91636)"
       id="g2740">
      <path
         inkscape:connector-curvature="0"
         id="path2742"
         style="fill:#ffffff;fill-opacity:1;fill-rule:nonzero;stroke:none"
         d="m 0,0 c 0,0 3.293,3.786 8.15,4.446 v -0.99 l 1.073,0.166 c 0,0 0.574,-4.858 -1.155,-8.975" />
    </g>
    <g
       transform="matrix(0.35277777,0,0,-0.35277777,90.627789,112.91636)"
       id="g2744">
      <path
         inkscape:connector-curvature="0"
         id="path2746"
         style="fill:#ffffff;fill-opacity:1;fill-rule:nonzero;stroke:none"
         d="m 0,0 c 0,0 -3.292,3.786 -8.15,4.446 v -0.99 l -1.071,0.166 c 0,0 -0.576,-4.858 1.153,-8.975" />
    </g>
    <g
       transform="matrix(0.35277777,0,0,-0.35277777,92.196662,119.59762)"
       id="g2748">
      <path
         inkscape:connector-curvature="0"
         id="path2750"
         style="fill:#ffffff;fill-opacity:1;fill-rule:nonzero;stroke:none"
         d="m 0,0 c -10.046,0 -14.492,5.023 -14.492,5.023 l 0.742,0.492 -0.906,0.742 c 0.164,5.435 3.458,9.47 3.458,9.47 0,0 3.788,4.034 11.198,4.034 7.41,0 11.199,-4.034 11.199,-4.034 0,0 3.293,-4.035 3.457,-9.47 L 13.752,5.515 14.492,5.023 C 14.492,5.023 10.045,0 0,0" />
    </g>
    <g
       transform="matrix(0.35277777,0,0,-0.35277777,90.064861,115.00928)"
       id="g2752"
       style="fill:#000000">
      <path
         inkscape:connector-curvature="0"
         id="path2754"
         style="fill:#000000;fill-opacity:1;fill-rule:nonzero;stroke:none"
         d="m 0,0 c 0,-0.622 -0.504,-1.125 -1.125,-1.125 -0.621,0 -1.124,0.503 -1.124,1.125 0,0.62 0.503,1.124 1.124,1.124 C -0.504,1.124 0,0.62 0,0" />
    </g>
    <g
       transform="matrix(0.35277777,0,0,-0.35277777,94.415987,115.00928)"
       id="g2756"
       style="fill:#000000">
      <path
         inkscape:connector-curvature="0"
         id="path2758"
         style="fill:#000000;fill-opacity:1;fill-rule:nonzero;stroke:none"
         d="m 0,0 c 0,-0.622 -0.502,-1.125 -1.125,-1.125 -0.621,0 -1.123,0.503 -1.123,1.125 0,0.62 0.502,1.124 1.123,1.124 C -0.502,1.124 0,0.62 0,0" />
    </g>
    <g
       transform="matrix(0.35277777,0,0,-0.35277777,95.601109,114.01914)"
       id="g2760"
       style="fill:#000000">
      <path
         inkscape:connector-curvature="0"
         id="path2762"
         style="fill:#000000;fill-opacity:1;fill-rule:nonzero;stroke:none"
         d="m 0,0 -2.477,2.218 c 0,0 1.5,1.695 3.651,2.184 L -0.684,2.152 1.109,2.086 -0.326,1.174 Z" />
    </g>
    <g
       transform="matrix(0.35277777,0,0,-0.35277777,88.791898,114.01914)"
       id="g2764"
       style="fill:#000000">
      <path
         inkscape:connector-curvature="0"
         id="path2766"
         style="fill:#000000;fill-opacity:1;fill-rule:nonzero;stroke:none"
         d="m 0,0 2.478,2.218 c 0,0 -1.5,1.695 -3.651,2.184 L 0.685,2.152 -1.108,2.086 0.326,1.174 Z" />
    </g>
    <g
       transform="matrix(0.35277777,0,0,-0.35277777,99.275642,104.60834)"
       id="g2768">
      <path
         inkscape:connector-curvature="0"
         id="path2770"
         style="fill:#ffffff;fill-opacity:1;fill-rule:nonzero;stroke:none"
         d="m 0,0 c 0,0 6.858,-4.505 -4.056,-8.227 0,0 8.725,1.599 7.955,5.39 C 3.489,-0.817 0,0 0,0" />
    </g>
    <g
       transform="matrix(0.35277777,0,0,-0.35277777,97.815637,108.29494)"
       id="g2772">
      <path
         inkscape:connector-curvature="0"
         id="path2774"
         style="fill:#ffffff;fill-opacity:1;fill-rule:nonzero;stroke:none"
         d="m 0,0 c 0,0 7.266,1.012 8.331,3.624 0,0 0.574,-2.256 -2.942,-3.134 C 3.111,-0.079 0,0 0,0" />
    </g>
    <g
       transform="matrix(0.35277777,0,0,-0.35277777,88.06186,107.55477)"
       id="g2776">
      <path
         inkscape:connector-curvature="0"
         id="path2778"
         style="fill:#ffffff;fill-opacity:1;fill-rule:nonzero;stroke:none"
         d="m 0,0 c -1.424,1.244 -3.146,1.588 -3.146,1.588 0,0 1.595,2.648 4.232,1.558 C 2.942,2.375 3.428,0.57 3.428,0.57 c 0,0 -0.924,6.057 8.333,4.805 9.26,-1.252 8.856,-1.961 8.856,-1.961 0,0 -8.175,0.155 -10.107,-3.013 -1.348,-2.21 -0.262,-2.979 -0.262,-2.979 l 14.518,1.324 c 0,0 -10.569,-4.268 -10.537,-4.568 0.034,-0.297 8.111,-2.83 8.111,-2.83 0,0 -9.322,-0.538 -13.242,0.898 0,0 -1.821,-1.57 5.121,-5.988 0.285,-0.177 -15.584,3.232 -12.94,10.787 C 1.493,-2.35 0.616,-0.537 0,0" />
    </g>
    <g
       transform="matrix(0.35277777,0,0,-0.35277777,88.087365,106.95791)"
       id="g2780"
       style="fill:#000000">
      <path
         inkscape:connector-curvature="0"
         id="path2782"
         style="fill:#000000;fill-opacity:1;fill-rule:nonzero;stroke:none"
         d="m 0,0 c -0.101,-0.268 -0.395,-0.405 -0.662,-0.309 -0.268,0.101 -0.407,0.396 -0.309,0.664 0.102,0.267 0.395,0.406 0.666,0.307 C -0.039,0.562 0.099,0.269 0,0" />
    </g>
  </g>
</svg>
