<?xml version="1.0" encoding="UTF-8" standalone="no"?>
<!-- Created with Inkscape (http://www.inkscape.org/) -->

<svg
   xmlns:dc="http://purl.org/dc/elements/1.1/"
   xmlns:cc="http://creativecommons.org/ns#"
   xmlns:rdf="http://www.w3.org/1999/02/22-rdf-syntax-ns#"
   xmlns:svg="http://www.w3.org/2000/svg"
   xmlns="http://www.w3.org/2000/svg"
   xmlns:sodipodi="http://sodipodi.sourceforge.net/DTD/sodipodi-0.dtd"
   xmlns:inkscape="http://www.inkscape.org/namespaces/inkscape"
   width="10.013597mm"
   height="10.013597mm"
   viewBox="0 0 10.013597 10.013597"
   version="1.1"
   id="svg12856"
   inkscape:version="0.92.4 (5da689c313, 2019-01-14)"
   sodipodi:docname="exhaustion.svg">
  <defs
     id="defs12850" />
  <sodipodi:namedview
     id="base"
     pagecolor="#ffffff"
     bordercolor="#666666"
     borderopacity="1.0"
     inkscape:pageopacity="0.0"
     inkscape:pageshadow="2"
     inkscape:zoom="0.35"
     inkscape:cx="-448.21952"
     inkscape:cy="-52.505239"
     inkscape:document-units="mm"
     inkscape:current-layer="layer1"
     showgrid="false"
     inkscape:window-width="1920"
     inkscape:window-height="1017"
     inkscape:window-x="1912"
     inkscape:window-y="-8"
     inkscape:window-maximized="1" />
  <metadata
     id="metadata12853">
    <rdf:RDF>
      <cc:Work
         rdf:about="">
        <dc:format>image/svg+xml</dc:format>
        <dc:type
           rdf:resource="http://purl.org/dc/dcmitype/StillImage" />
        <dc:title></dc:title>
      </cc:Work>
    </rdf:RDF>
  </metadata>
  <g
     inkscape:label="Layer 1"
     inkscape:groupmode="layer"
     id="layer1"
     transform="translate(-113.67772,-124.92773)">
    <g
       transform="matrix(0.35277777,0,0,-0.35277777,123.69132,133.3764)"
       id="g2040">
      <path
         inkscape:connector-curvature="0"
         id="path2042"
         style="fill:#231f20;fill-opacity:1;fill-rule:nonzero;stroke:none"
         d="m 0,0 c 0,-2.449 -1.984,-4.436 -4.436,-4.436 h -19.512 c -2.449,0 -4.437,1.987 -4.437,4.436 v 19.514 c 0,2.449 1.988,4.435 4.437,4.435 H -4.436 C -1.984,23.949 0,21.963 0,19.514 Z" />
    </g>
    <g
       transform="matrix(0.35277777,0,0,-0.35277777,119.51895,127.01465)"
       id="g2044">
      <path
         inkscape:connector-curvature="0"
         id="path2046"
         style="fill:#ffffff;fill-opacity:1;fill-rule:nonzero;stroke:none"
         d="m 0,0 c 0,-0.928 -0.751,-1.679 -1.678,-1.679 -0.927,0 -1.678,0.751 -1.678,1.679 0,0.928 0.751,1.68 1.678,1.68 C -0.751,1.68 0,0.928 0,0" />
    </g>
    <g
       transform="matrix(0.35277777,0,0,-0.35277777,119.06764,130.8618)"
       id="g2048">
      <path
         inkscape:connector-curvature="0"
         id="path2050"
         style="fill:#ffffff;fill-opacity:1;fill-rule:nonzero;stroke:none"
         d="m 0,0 c 0,-0.522 -0.424,-0.944 -0.944,-0.944 -0.521,0 -0.944,0.422 -0.944,0.944 v 6.292 c 0,0.52 0.423,0.941 0.944,0.941 C -0.424,7.233 0,6.812 0,6.292 Z" />
    </g>
    <g
       transform="matrix(0.35277777,0,0,-0.35277777,119.98405,131.84264)"
       id="g2052">
      <path
         inkscape:connector-curvature="0"
         id="path2054"
         style="fill:#ffffff;fill-opacity:1;fill-rule:nonzero;stroke:none"
         d="m 0,0 c -0.037,-0.519 -0.488,-0.91 -1.006,-0.874 -0.521,0.036 -0.912,0.487 -0.877,1.007 L -1.44,6.408 C -1.404,6.929 -0.953,7.32 -0.433,7.284 0.084,7.248 0.478,6.797 0.44,6.277 Z" />
    </g>
    <g
       transform="matrix(0.35277777,0,0,-0.35277777,120.24038,133.47596)"
       id="g2056">
      <path
         inkscape:connector-curvature="0"
         id="path2058"
         style="fill:#ffffff;fill-opacity:1;fill-rule:nonzero;stroke:none"
         d="m 0,0 c 0.079,-0.515 -0.275,-0.997 -0.79,-1.077 -0.514,-0.078 -0.995,0.275 -1.075,0.789 0,0 -0.78,3.797 -0.744,4.823 0.025,0.722 0.292,1.048 0.809,1.128 0.512,0.078 0.993,-0.273 1.073,-0.788 z" />
    </g>
    <g
       transform="matrix(0.35277777,0,0,-0.35277777,121.21496,131.55808)"
       id="g2060">
      <path
         inkscape:connector-curvature="0"
         id="path2062"
         style="fill:#ffffff;fill-opacity:1;fill-rule:nonzero;stroke:none"
         d="m 0,0 c 0.137,-0.503 -0.161,-1.021 -0.661,-1.158 -0.503,-0.137 -0.883,-0.08 -1.157,0.663 l -1.65,6.074 c -0.137,0.501 0.16,1.02 0.664,1.155 0.5,0.137 1.019,-0.16 1.158,-0.662 z" />
    </g>
    <g
       transform="matrix(0.35277777,0,0,-0.35277777,122.20856,132.88166)"
       id="g2064">
      <path
         inkscape:connector-curvature="0"
         id="path2066"
         style="fill:#ffffff;fill-opacity:1;fill-rule:nonzero;stroke:none"
         d="m 0,0 c 0.311,-0.42 0.221,-1.011 -0.194,-1.32 -0.419,-0.31 -1.01,-0.223 -1.322,0.195 l -2.913,3.976 c -0.31,0.419 -0.224,1.008 0.197,1.319 0.416,0.309 1.007,0.223 1.318,-0.196 z" />
    </g>
    <g
       transform="matrix(0.35277777,0,0,-0.35277777,119.07695,127.19658)"
       id="g2068">
      <path
         inkscape:connector-curvature="0"
         id="path2070"
         style="fill:#ffffff;fill-opacity:1;fill-rule:nonzero;stroke:none"
         d="m 0,0 c 0,0 4.064,0.236 4.064,-3.257 0,-2.888 -0.605,-3.157 -0.605,-3.157 L 4.164,-10.41 1.747,-10.914 1.074,-7.22 c 0,0 -0.266,3.193 -1.242,2.486 -0.973,-0.705 -1.747,0.234 -1.747,0.234 0,0 -0.038,2.463 0.739,3.662 C -0.737,-0.166 0,0 0,0" />
    </g>
    <g
       transform="matrix(0.35277777,0,0,-0.35277777,120.50115,130.76774)"
       id="g2072">
      <path
         inkscape:connector-curvature="0"
         id="path2074"
         style="fill:#ffffff;fill-opacity:1;fill-rule:nonzero;stroke:none"
         d="m 0,0 c 0,-0.521 -0.422,-0.943 -0.942,-0.943 -0.524,0 -0.944,0.422 -0.944,0.943 v 7.1 c 0,0.519 0.42,0.943 0.944,0.943 C -0.422,8.043 0,7.619 0,7.1 Z" />
    </g>
    <g
       transform="matrix(0.35277777,0,0,-0.35277777,120.60176,128.18739)"
       id="g2076">
      <path
         inkscape:connector-curvature="0"
         id="path2078"
         style="fill:#ffffff;fill-opacity:1;fill-rule:nonzero;stroke:#231f20;stroke-width:1.07299995;stroke-linecap:butt;stroke-linejoin:miter;stroke-miterlimit:4;stroke-dasharray:none;stroke-opacity:1"
         d="m 0,0 0.028,-7.404 c 0,-0.657 -0.539,-0.969 -1.057,-0.969 0,0 -0.83,0.178 -0.83,0.924 v 5.97" />
    </g>
    <g
       transform="matrix(0.35277777,0,0,-0.35277777,118.02687,127.85529)"
       id="g2080">
      <path
         inkscape:connector-curvature="0"
         id="path2082"
         style="fill:#ffffff;fill-opacity:1;fill-rule:nonzero;stroke:none"
         d="m 0,0 -2.439,-1.244 c 0,0 -0.741,0.855 -1.331,-0.078 0,0 -0.925,0.271 -0.925,-0.739 0,0 -0.997,-0.814 0.184,-1.086 0,0 0.444,-0.855 1.073,0.04 0,0 1.294,0.076 0.925,0.892 z" />
    </g>
    <g
       transform="matrix(0.35277777,0,0,-0.35277777,115.52677,133.07115)"
       id="g2084">
      <path
         inkscape:connector-curvature="0"
         id="path2086"
         style="fill:none;stroke:#ffffff;stroke-width:2;stroke-linecap:butt;stroke-linejoin:miter;stroke-miterlimit:4;stroke-dasharray:none;stroke-opacity:1"
         d="m 0,0 v 3.879 c 0,0.83 0.673,1.504 1.502,1.504 h 3.881" />
    </g>
    <g
       transform="matrix(0.35277777,0,0,-0.35277777,115.99876,132.79556)"
       id="g2088">
      <path
         inkscape:connector-curvature="0"
         id="path2090"
         style="fill:#ffffff;fill-opacity:1;fill-rule:nonzero;stroke:none"
         d="M 0,0 -1.315,-2.279 -2.633,0 Z" />
    </g>
  </g>
</svg>
