<?xml version="1.0" encoding="UTF-8" standalone="no"?>
<!-- Created with Inkscape (http://www.inkscape.org/) -->

<svg
   xmlns:dc="http://purl.org/dc/elements/1.1/"
   xmlns:cc="http://creativecommons.org/ns#"
   xmlns:rdf="http://www.w3.org/1999/02/22-rdf-syntax-ns#"
   xmlns:svg="http://www.w3.org/2000/svg"
   xmlns="http://www.w3.org/2000/svg"
   xmlns:sodipodi="http://sodipodi.sourceforge.net/DTD/sodipodi-0.dtd"
   xmlns:inkscape="http://www.inkscape.org/namespaces/inkscape"
   width="10.000192mm"
   height="10.000192mm"
   viewBox="0 0 10.000192 10.000192"
   version="1.1"
   id="svg12538"
   inkscape:version="0.92.4 (5da689c313, 2019-01-14)"
   sodipodi:docname="fumble.svg">
  <defs
     id="defs12532" />
  <sodipodi:namedview
     id="base"
     pagecolor="#ffffff"
     bordercolor="#666666"
     borderopacity="1.0"
     inkscape:pageopacity="0.0"
     inkscape:pageshadow="2"
     inkscape:zoom="0.35"
     inkscape:cx="-305.38771"
     inkscape:cy="-43.959148"
     inkscape:document-units="mm"
     inkscape:current-layer="layer1"
     showgrid="false"
     inkscape:window-width="1920"
     inkscape:window-height="1017"
     inkscape:window-x="1912"
     inkscape:window-y="-8"
     inkscape:window-maximized="1" />
  <metadata
     id="metadata12535">
    <rdf:RDF>
      <cc:Work
         rdf:about="">
        <dc:format>image/svg+xml</dc:format>
        <dc:type
           rdf:resource="http://purl.org/dc/dcmitype/StillImage" />
        <dc:title></dc:title>
      </cc:Work>
    </rdf:RDF>
  </metadata>
  <g
     inkscape:label="Layer 1"
     inkscape:groupmode="layer"
     id="layer1"
     transform="translate(-75.886809,-127.20228)">
    <g
       transform="matrix(0.35277777,0,0,-0.35277777,85.887,135.63967)"
       id="g1814">
      <path
         inkscape:connector-curvature="0"
         id="path1816"
         style="fill:#231f20;fill-opacity:1;fill-rule:nonzero;stroke:none"
         d="m 0,0 c 0,-2.447 -1.982,-4.43 -4.43,-4.43 h -19.486 c -2.447,0 -4.431,1.983 -4.431,4.43 v 19.488 c 0,2.446 1.984,4.429 4.431,4.429 H -4.43 c 2.448,0 4.43,-1.983 4.43,-4.429 z" />
    </g>
    <g
       transform="matrix(0.35277777,0,0,-0.35277777,82.679617,134.39941)"
       id="g1818">
      <path
         inkscape:connector-curvature="0"
         id="path1820"
         style="fill:#ffffff;fill-opacity:1;fill-rule:nonzero;stroke:none"
         d="m 0,0 c 0,2.287 -2.204,4.142 -4.924,4.142 -2.719,0 -4.923,-1.855 -4.923,-4.142 0,-1.644 1.14,-3.059 2.79,-3.729 0,0 -0.25,-1.553 1.224,-1.553 0,0 0.494,-0.016 0.854,-0.016 0.358,0 0.936,0.016 0.936,0.016 1.615,0 1.226,1.543 1.226,1.543 C -1.153,-3.075 0,-1.652 0,0" />
    </g>
    <g
       transform="matrix(0.35277777,0,0,-0.35277777,81.001486,135.1558)"
       id="g1822">
      <path
         inkscape:connector-curvature="0"
         id="path1824"
         style="fill:#231f20;fill-opacity:1;fill-rule:nonzero;stroke:none"
         d="m 0,0 0.046,-0.84 c 0,0 0.515,-0.05 0.515,0.198 C 0.561,-0.395 0,0 0,0" />
    </g>
    <g
       transform="matrix(0.35277777,0,0,-0.35277777,80.883694,135.1558)"
       id="g1826">
      <path
         inkscape:connector-curvature="0"
         id="path1828"
         style="fill:#231f20;fill-opacity:1;fill-rule:nonzero;stroke:none"
         d="m 0,0 -0.046,-0.84 c 0,0 -0.515,-0.05 -0.515,0.198 C -0.561,-0.395 0,0 0,0" />
    </g>
    <g
       transform="matrix(0.35277777,0,0,-0.35277777,82.14424,134.73635)"
       id="g1830">
      <path
         inkscape:connector-curvature="0"
         id="path1832"
         style="fill:#231f20;fill-opacity:1;fill-rule:nonzero;stroke:none"
         d="m 0,0 c -0.107,-0.725 -0.603,-1.262 -1.758,-1.131 -0.841,0.095 -1.052,0.789 -1,1.734 0.053,0.944 0.583,1.512 1.584,1.29 C 0.246,1.449 0,0 0,0" />
    </g>
    <g
       transform="matrix(0.35277777,0,0,-0.35277777,79.740942,134.73635)"
       id="g1834">
      <path
         inkscape:connector-curvature="0"
         id="path1836"
         style="fill:#231f20;fill-opacity:1;fill-rule:nonzero;stroke:none"
         d="m 0,0 c 0.107,-0.725 0.603,-1.262 1.759,-1.131 0.84,0.095 1.052,0.789 1,1.734 C 2.705,1.547 2.175,2.115 1.175,1.893 -0.246,1.449 0,0 0,0" />
    </g>
    <g
       transform="matrix(0.35277777,0,0,-0.35277777,80.397215,136.28285)"
       id="g1838">
      <path
         inkscape:connector-curvature="0"
         id="path1840"
         style="fill:#231f20;fill-opacity:1;fill-rule:nonzero;stroke:none"
         d="M 0,0 V 1.363 H 0.352 V -0.144 Z" />
    </g>
    <g
       transform="matrix(0.35277777,0,0,-0.35277777,80.722086,136.28285)"
       id="g1842">
      <path
         inkscape:connector-curvature="0"
         id="path1844"
         style="fill:#231f20;fill-opacity:1;fill-rule:nonzero;stroke:none"
         d="M 0,0 V 1.363 H 0.353 V -0.144 Z" />
    </g>
    <g
       transform="matrix(0.35277777,0,0,-0.35277777,81.04696,136.28285)"
       id="g1846">
      <path
         inkscape:connector-curvature="0"
         id="path1848"
         style="fill:#231f20;fill-opacity:1;fill-rule:nonzero;stroke:none"
         d="M 0,0 V 1.363 H 0.352 V -0.144 Z" />
    </g>
    <g
       transform="matrix(0.35277777,0,0,-0.35277777,81.371517,136.28285)"
       id="g1850">
      <path
         inkscape:connector-curvature="0"
         id="path1852"
         style="fill:#231f20;fill-opacity:1;fill-rule:nonzero;stroke:none"
         d="M 0,0 V 1.363 H 0.352 V -0.144 Z" />
    </g>
    <g
       transform="matrix(0.35277777,0,0,-0.35277777,80.661126,128.19257)"
       id="g1854">
      <path
         inkscape:connector-curvature="0"
         id="path1856"
         style="fill:#ffffff;fill-opacity:1;fill-rule:nonzero;stroke:none"
         d="M 0,0 C 0,0 -0.441,-4.682 0.147,-8.853 0.147,-8.853 0.49,-4.427 0,0" />
    </g>
    <g
       transform="matrix(0.35277777,0,0,-0.35277777,81.059025,128.19257)"
       id="g1858">
      <path
         inkscape:connector-curvature="0"
         id="path1860"
         style="fill:#ffffff;fill-opacity:1;fill-rule:nonzero;stroke:none"
         d="m 0,0 c 0,0 -0.441,-4.682 0.147,-8.853 0,0 0.342,4.426 -0.147,8.853" />
    </g>
    <g
       transform="matrix(0.35277777,0,0,-0.35277777,78.33156,135.97693)"
       id="g1862">
      <path
         inkscape:connector-curvature="0"
         id="path1864"
         style="fill:#ffffff;fill-opacity:1;fill-rule:nonzero;stroke:#231f20;stroke-width:0.56900001;stroke-linecap:butt;stroke-linejoin:miter;stroke-miterlimit:4;stroke-dasharray:none;stroke-opacity:1"
         d="m 0,0 1.359,1.327 c 0,0 0.384,1.092 -1.537,4.152 -1.92,3.057 -2.885,2.714 -2.879,2.702 0.007,-0.014 -1.628,-0.48 -1.628,-0.48" />
    </g>
    <g
       transform="matrix(0.35277777,0,0,-0.35277777,76.356461,133.04362)"
       id="g1866">
      <path
         inkscape:connector-curvature="0"
         id="path1868"
         style="fill:#ffffff;fill-opacity:1;fill-rule:nonzero;stroke:none"
         d="M 0,0 C 0.484,0.268 2.154,-1.621 3.728,-4.22 5.301,-6.82 6.181,-9.143 5.695,-9.411 5.211,-9.68 3.543,-7.79 1.97,-5.191 0.396,-2.593 -0.484,-0.269 0,0" />
    </g>
    <g
       transform="matrix(0.35277777,0,0,-0.35277777,76.356461,133.04362)"
       id="g1870">
      <path
         inkscape:connector-curvature="0"
         id="path1872"
         style="fill:none;stroke:#231f20;stroke-width:0.60699999;stroke-linecap:butt;stroke-linejoin:miter;stroke-miterlimit:4;stroke-dasharray:none;stroke-opacity:1"
         d="M 0,0 C 0.484,0.268 2.154,-1.621 3.728,-4.22 5.301,-6.82 6.181,-9.143 5.695,-9.411 5.211,-9.68 3.543,-7.79 1.97,-5.191 0.396,-2.593 -0.484,-0.269 0,0 Z" />
    </g>
    <g
       transform="matrix(0.35277777,0,0,-0.35277777,76.537685,133.34884)"
       id="g1874">
      <path
         inkscape:connector-curvature="0"
         id="path1876"
         style="fill:#ffffff;fill-opacity:1;fill-rule:nonzero;stroke:none"
         d="M 0,0 C 0.246,0.137 1.488,-1.474 2.776,-3.595 4.065,-5.715 4.912,-7.546 4.668,-7.682 4.425,-7.816 3.181,-6.207 1.892,-4.087 0.604,-1.965 -0.245,-0.136 0,0" />
    </g>
    <g
       transform="matrix(0.35277777,0,0,-0.35277777,76.537685,133.34884)"
       id="g1878">
      <path
         inkscape:connector-curvature="0"
         id="path1880"
         style="fill:none;stroke:#231f20;stroke-width:0.25;stroke-linecap:butt;stroke-linejoin:miter;stroke-miterlimit:4;stroke-dasharray:none;stroke-opacity:1"
         d="M 0,0 C 0.246,0.137 1.488,-1.474 2.776,-3.595 4.065,-5.715 4.912,-7.546 4.668,-7.682 4.425,-7.816 3.181,-6.207 1.892,-4.087 0.604,-1.965 -0.245,-0.136 0,0 Z" />
    </g>
    <g
       transform="matrix(0.35277777,0,0,-0.35277777,78.118658,135.30291)"
       id="g1882">
      <path
         inkscape:connector-curvature="0"
         id="path1884"
         style="fill:#231f20;fill-opacity:1;fill-rule:nonzero;stroke:none"
         d="M 0,0 1.79,1.212 1.682,1.355 -0.094,0.285 Z" />
    </g>
    <g
       transform="matrix(0.35277777,0,0,-0.35277777,76.915261,133.39706)"
       id="g1886">
      <path
         inkscape:connector-curvature="0"
         id="path1888"
         style="fill:#231f20;fill-opacity:1;fill-rule:nonzero;stroke:none"
         d="M 0,0 1.743,0.633 2.06,0.375 0.188,-0.424 Z" />
    </g>
    <g
       transform="matrix(0.35277777,0,0,-0.35277777,78.198562,135.53701)"
       id="g1890">
      <path
         inkscape:connector-curvature="0"
         id="path1892"
         style="fill:#231f20;fill-opacity:1;fill-rule:nonzero;stroke:none"
         d="M 0,0 1.774,1.335 1.542,1.602 -0.215,0.41 Z" />
    </g>
    <g
       transform="matrix(0.35277777,0,0,-0.35277777,77.070662,133.61187)"
       id="g1894">
      <path
         inkscape:connector-curvature="0"
         id="path1896"
         style="fill:#231f20;fill-opacity:1;fill-rule:nonzero;stroke:none"
         d="M 0,0 1.776,0.854 1.948,0.684 0.076,-0.24 Z" />
    </g>
    <g
       transform="matrix(0.35277777,0,0,-0.35277777,77.404143,135.10327)"
       id="g1898">
      <path
         inkscape:connector-curvature="0"
         id="path1900"
         style="fill:#231f20;fill-opacity:1;fill-rule:nonzero;stroke:none"
         d="M 0,0 0.87,0.388 0.976,0.278 0.198,-0.22 Z" />
    </g>
    <g
       transform="matrix(0.35277777,0,0,-0.35277777,77.443759,135.25793)"
       id="g1902">
      <path
         inkscape:connector-curvature="0"
         id="path1904"
         style="fill:#231f20;fill-opacity:1;fill-rule:nonzero;stroke:none"
         d="M 0,0 0.941,0.583 1.116,0.283 0.339,-0.213 Z" />
    </g>
    <g
       transform="matrix(0.35277777,0,0,-0.35277777,79.819505,132.58077)"
       id="g1906">
      <path
         inkscape:connector-curvature="0"
         id="path1908"
         style="fill:none;stroke:#ffffff;stroke-width:0.51800001;stroke-linecap:butt;stroke-linejoin:miter;stroke-miterlimit:4;stroke-dasharray:none;stroke-opacity:1"
         d="m 0,0 c 0,0 -1.072,1.824 -2.307,0.911 -2.095,-1.404 0.656,-3.216 0.751,-1.501 0.054,0.965 -3.058,2.092 -2.629,-1.235" />
    </g>
    <g
       transform="matrix(0.35277777,0,0,-0.35277777,78.585454,131.89709)"
       id="g1910">
      <path
         inkscape:connector-curvature="0"
         id="path1912"
         style="fill:#ffffff;fill-opacity:1;fill-rule:nonzero;stroke:none"
         d="m 0,0 c -0.443,-0.347 -1.083,-0.268 -1.43,0.175 l -3.391,4.329 c -0.348,0.442 -0.27,1.082 0.174,1.428 L -0.32,9.323 C 0.123,9.671 0.763,9.593 1.11,9.149 L 4.501,4.821 C 4.848,4.379 4.771,3.739 4.327,3.392 Z" />
    </g>
    <g
       transform="matrix(0.35277777,0,0,-0.35277777,83.878497,132.47328)"
       id="g1914">
      <path
         inkscape:connector-curvature="0"
         id="path1916"
         style="fill:#ffffff;fill-opacity:1;fill-rule:nonzero;stroke:none"
         d="M 0,0 C -0.309,-0.469 -0.941,-0.599 -1.41,-0.289 L -5.999,2.74 c -0.471,0.309 -0.6,0.941 -0.289,1.41 l 3.027,4.589 c 0.31,0.469 0.942,0.6 1.411,0.289 L 2.74,6 C 3.209,5.691 3.339,5.058 3.03,4.59 Z" />
    </g>
    <g
       transform="matrix(0.35277777,0,0,-0.35277777,79.006777,130.29943)"
       id="g1918">
      <path
         inkscape:connector-curvature="0"
         id="path1920"
         style="fill:#231f20;fill-opacity:1;fill-rule:nonzero;stroke:none"
         d="m 0,0 c 0,-0.736 -0.597,-1.334 -1.333,-1.334 -0.736,0 -1.333,0.598 -1.333,1.334 0,0.736 0.597,1.333 1.333,1.333 C -0.597,1.333 0,0.736 0,0" />
    </g>
    <g
       transform="matrix(0.35277777,0,0,-0.35277777,83.769277,130.94642)"
       id="g1922">
      <path
         inkscape:connector-curvature="0"
         id="path1924"
         style="fill:#231f20;fill-opacity:1;fill-rule:nonzero;stroke:none"
         d="m 0,0 c 0,-0.736 -0.597,-1.333 -1.333,-1.333 -0.736,0 -1.333,0.597 -1.333,1.333 0,0.737 0.597,1.333 1.333,1.333 C -0.597,1.333 0,0.737 0,0" />
    </g>
  </g>
</svg>
