<?xml version="1.0" encoding="UTF-8" standalone="no"?>
<!-- Created with Inkscape (http://www.inkscape.org/) -->

<svg
   xmlns:dc="http://purl.org/dc/elements/1.1/"
   xmlns:cc="http://creativecommons.org/ns#"
   xmlns:rdf="http://www.w3.org/1999/02/22-rdf-syntax-ns#"
   xmlns:svg="http://www.w3.org/2000/svg"
   xmlns="http://www.w3.org/2000/svg"
   xmlns:sodipodi="http://sodipodi.sourceforge.net/DTD/sodipodi-0.dtd"
   xmlns:inkscape="http://www.inkscape.org/namespaces/inkscape"
   width="10.523822mm"
   height="10.013597mm"
   viewBox="0 0 10.523822 10.013597"
   version="1.1"
   id="svg12766"
   inkscape:version="0.92.4 (5da689c313, 2019-01-14)"
   sodipodi:docname="injury.svg">
  <defs
     id="defs12760" />
  <sodipodi:namedview
     id="base"
     pagecolor="#ffffff"
     bordercolor="#666666"
     borderopacity="1.0"
     inkscape:pageopacity="0.0"
     inkscape:pageshadow="2"
     inkscape:zoom="0.35"
     inkscape:cx="-435.82676"
     inkscape:cy="64.637627"
     inkscape:document-units="mm"
     inkscape:current-layer="layer1"
     showgrid="false"
     inkscape:window-width="1920"
     inkscape:window-height="1017"
     inkscape:window-x="1912"
     inkscape:window-y="-8"
     inkscape:window-maximized="1" />
  <metadata
     id="metadata12763">
    <rdf:RDF>
      <cc:Work
         rdf:about="">
        <dc:format>image/svg+xml</dc:format>
        <dc:type
           rdf:resource="http://purl.org/dc/dcmitype/StillImage" />
        <dc:title></dc:title>
      </cc:Work>
    </rdf:RDF>
  </metadata>
  <g
     inkscape:label="Layer 1"
     inkscape:groupmode="layer"
     id="layer1"
     transform="translate(-110.39881,-155.92178)">
    <g
       transform="matrix(0.35277777,0,0,-0.35277777,120.41205,164.37045)"
       id="g1926">
      <path
         inkscape:connector-curvature="0"
         id="path1928"
         style="fill:#231f20;fill-opacity:1;fill-rule:nonzero;stroke:none"
         d="M 0,0 C 0,-2.449 -1.986,-4.436 -4.434,-4.436 H -23.95 c -2.448,0 -4.434,1.987 -4.434,4.436 v 19.514 c 0,2.449 1.986,4.435 4.434,4.435 H -4.434 C -1.986,23.949 0,21.963 0,19.514 Z" />
    </g>
    <g
       transform="matrix(0.35277777,0,0,-0.35277777,120.83408,156.29034)"
       id="g1930">
      <path
         inkscape:connector-curvature="0"
         id="path1932"
         style="fill:#ffffff;fill-opacity:1;fill-rule:nonzero;stroke:none"
         d="m 0,0 c -1.537,0.262 -2.319,-0.336 -3.879,-0.752 -1.866,-0.493 -4.323,-4.889 -5.382,-6.414 -1.513,-2.186 -2.88,-4.508 -4.258,-6.762 -0.725,-1.189 -0.868,-1.988 -2.251,-2.754 0.095,-0.006 -1.174,-0.463 -1.19,-0.382 -1.846,0.345 -3.067,0.18 -4.596,0.41 -1.09,0.165 -2.193,0.278 -2.975,0.623 -0.894,0.392 -1.82,0.184 -1.067,-0.908 0.419,-0.604 0.972,-0.641 1.503,-0.907 0.58,-0.293 0.317,-0.535 0.595,-1.064 0.282,-0.532 1.095,-1.253 2.191,-1.253 1.408,0 2.419,-0.265 2.971,-0.655 0.592,-0.422 1.038,-0.936 1.223,-1.252 0.688,-1.19 1.856,-1.397 2.66,-1.284 1.183,0.168 1.602,1.377 1.938,2.916 0.617,2.821 2.939,5.206 5.133,7.237 1.724,1.588 5.297,6.671 7.635,6.407" />
    </g>
    <g
       transform="matrix(0.35277777,0,0,-0.35277777,118.84762,160.58603)"
       id="g1934">
      <path
         inkscape:connector-curvature="0"
         id="path1936"
         style="fill:none;stroke:#231f20;stroke-width:0.75;stroke-linecap:butt;stroke-linejoin:miter;stroke-miterlimit:4;stroke-dasharray:none;stroke-opacity:1"
         d="M 0,0 -4.132,5.258" />
    </g>
    <g
       transform="matrix(0.35277777,0,0,-0.35277777,116.86049,159.74712)"
       id="g1938">
      <path
         inkscape:connector-curvature="0"
         id="path1940"
         style="fill:none;stroke:#231f20;stroke-width:0.75;stroke-linecap:butt;stroke-linejoin:miter;stroke-miterlimit:4;stroke-dasharray:none;stroke-opacity:1"
         d="M 0,0 4.63,-4.255" />
    </g>
    <g
       transform="matrix(0.35277777,0,0,-0.35277777,116.72753,159.61417)"
       id="g1942">
      <path
         inkscape:connector-curvature="0"
         id="path1944"
         style="fill:none;stroke:#231f20;stroke-width:0.75;stroke-linecap:butt;stroke-linejoin:miter;stroke-miterlimit:4;stroke-dasharray:none;stroke-opacity:1"
         d="M 0,0 3.632,-5.758" />
    </g>
    <g
       transform="matrix(0.35277777,0,0,-0.35277777,116.33031,160.23221)"
       id="g1946">
      <path
         inkscape:connector-curvature="0"
         id="path1948"
         style="fill:none;stroke:#231f20;stroke-width:0.75;stroke-linecap:butt;stroke-linejoin:miter;stroke-miterlimit:4;stroke-dasharray:none;stroke-opacity:1"
         d="M 0,0 2.88,-4.882" />
    </g>
    <g
       transform="matrix(0.35277777,0,0,-0.35277777,115.75669,161.07141)"
       id="g1950">
      <path
         inkscape:connector-curvature="0"
         id="path1952"
         style="fill:none;stroke:#231f20;stroke-width:0.75;stroke-linecap:butt;stroke-linejoin:miter;stroke-miterlimit:4;stroke-dasharray:none;stroke-opacity:1"
         d="M 0,0 4.755,-3.004" />
    </g>
    <g
       transform="matrix(0.35277777,0,0,-0.35277777,115.53518,161.07141)"
       id="g1954">
      <path
         inkscape:connector-curvature="0"
         id="path1956"
         style="fill:none;stroke:#231f20;stroke-width:0.75;stroke-linecap:butt;stroke-linejoin:miter;stroke-miterlimit:4;stroke-dasharray:none;stroke-opacity:1"
         d="M 0,0 3.631,-4.633" />
    </g>
    <g
       transform="matrix(0.35277777,0,0,-0.35277777,115.13555,162.13668)"
       id="g1958">
      <path
         inkscape:connector-curvature="0"
         id="path1960"
         style="fill:none;stroke:#231f20;stroke-width:0.75;stroke-linecap:butt;stroke-linejoin:miter;stroke-miterlimit:4;stroke-dasharray:none;stroke-opacity:1"
         d="M 0,0 4.264,-2.738" />
    </g>
    <g
       transform="matrix(0.35277777,0,0,-0.35277777,117.65495,158.46627)"
       id="g1962">
      <path
         inkscape:connector-curvature="0"
         id="path1964"
         style="fill:none;stroke:#231f20;stroke-width:0.75;stroke-linecap:butt;stroke-linejoin:miter;stroke-miterlimit:4;stroke-dasharray:none;stroke-opacity:1"
         d="M 0,0 5.007,-4.131" />
    </g>
    <g
       transform="matrix(0.35277777,0,0,-0.35277777,118.36153,157.45064)"
       id="g1966">
      <path
         inkscape:connector-curvature="0"
         id="path1968"
         style="fill:none;stroke:#231f20;stroke-width:0.75;stroke-linecap:butt;stroke-linejoin:miter;stroke-miterlimit:4;stroke-dasharray:none;stroke-opacity:1"
         d="M 0,0 3.504,-5.883" />
    </g>
  </g>
</svg>
