<?xml version="1.0" encoding="UTF-8" standalone="no"?>
<svg
   xmlns:dc="http://purl.org/dc/elements/1.1/"
   xmlns:cc="http://creativecommons.org/ns#"
   xmlns:rdf="http://www.w3.org/1999/02/22-rdf-syntax-ns#"
   xmlns:svg="http://www.w3.org/2000/svg"
   xmlns="http://www.w3.org/2000/svg"
   xmlns:sodipodi="http://sodipodi.sourceforge.net/DTD/sodipodi-0.dtd"
   xmlns:inkscape="http://www.inkscape.org/namespaces/inkscape"
   viewBox="0 0 512 512"
   style="height: 512px; width: 512px;"
   version="1.1"
   id="svg85"
   sodipodi:docname="map.svg"
   inkscape:version="0.92.4 (5da689c313, 2019-01-14)">
  <metadata
     id="metadata91">
    <rdf:RDF>
      <cc:Work
         rdf:about="">
        <dc:format>image/svg+xml</dc:format>
        <dc:type
           rdf:resource="http://purl.org/dc/dcmitype/StillImage" />
        <dc:title></dc:title>
      </cc:Work>
    </rdf:RDF>
  </metadata>
  <defs
     id="defs89" />
  <sodipodi:namedview
     pagecolor="#ffffff"
     bordercolor="#666666"
     borderopacity="1"
     objecttolerance="10"
     gridtolerance="10"
     guidetolerance="10"
     inkscape:pageopacity="0"
     inkscape:pageshadow="2"
     inkscape:window-width="1920"
     inkscape:window-height="1017"
     id="namedview87"
     showgrid="false"
     inkscape:zoom="0.921875"
     inkscape:cx="215.47027"
     inkscape:cy="309.04324"
     inkscape:window-x="1912"
     inkscape:window-y="-8"
     inkscape:window-maximized="1"
     inkscape:current-layer="svg85" />
  <g
     id="g2344"
     transform="matrix(18.061876,0,0,-18.06315,512,432.01637)">
    <path
       d="m 0,0 c 0,-2.446 -1.983,-4.428 -4.429,-4.428 h -19.489 c -2.444,0 -4.429,1.982 -4.429,4.428 v 19.489 c 0,2.445 1.985,4.428 4.429,4.428 H -4.429 C -1.983,23.917 0,21.934 0,19.489 Z"
       style="fill:#231f20;fill-opacity:1;fill-rule:nonzero;stroke:none"
       id="path2346"
       inkscape:connector-curvature="0" />
  </g>
  <g
     class=""
     transform="translate(-15.022,5.954)"
     id="g3830">
    <path
       d="m 242.563,27.656 c -10.062,0.033 -20.126,0.205 -30.188,0.5 l 6.094,65.594 -61.095,-62.563 c -31.256,2.57 -62.494,6.655 -93.75,12.532 l 34.25,28.405 -48.063,-0.563 c 35.158,100.168 6.936,182.575 -0.312,292 l 95.75,105.844 c 10,-1.326 19.856,-2.423 29.563,-3.344 l 21.53,-42.156 18.532,28.844 41.5,-33.594 0.813,43.094 c 82.943,-0.242 157.734,9.098 235.687,7.813 -28.15,-73.01 -31.13,-143.562 -31.875,-209.157 l -33.25,-19.125 32.688,-33.874 c -0.43,-21.333 -1.342,-42.006 -3.625,-61.937 l -57.438,0.718 50.25,-41.657 c -3.843,-15.477 -9.052,-30.4 -16.125,-44.718 l -29.53,-23.906 c -53.8,-5.488 -107.607,-8.924 -161.408,-8.75 z m 58.718,36.97 7.095,16.624 24.594,57.625 14.092,-19.75 8.344,-11.688 7.313,12.376 40.655,69.124 -16.125,9.47 -33.375,-56.688 -42.438,59.405 -15.187,-10.875 24,-33.594 -21.97,-51.406 -24.56,40.063 11.967,22.625 -16.53,8.75 -18.25,-34.5 -24.845,58.187 -17.187,-7.344 32.53,-76.186 7.69,-18.03 9.155,17.31 5.313,10.032 28.25,-46.125 9.468,-15.405 z m -194.842,56.25 h 0.093 l 0.126,0.03 0.094,0.03 4.78,1.126 0.095,0.032 0.125,0.03 4.53,1.19 0.126,0.03 0.125,0.03 4.282,1.25 0.126,0.032 0.124,0.03 4.094,1.314 0.125,0.03 0.126,0.064 0.22,0.062 -5.845,16.53 -0.343,1.095 h -0.03 l -0.22,-0.06 -3.562,-1.157 -0.25,-0.063 -3.813,-1.125 -0.25,-0.063 -4.062,-1.062 -0.22,-0.063 -4.343,-1 -0.093,-0.03 -0.125,-0.032 1.155,-4.906 2.813,-13.345 z m 37.874,13.374 2.657,1.53 0.186,0.095 0.156,0.125 2.657,1.656 0.155,0.125 0.188,0.126 2.437,1.688 0.188,0.125 0.187,0.155 2.28,1.75 0.19,0.125 0.155,0.156 2.125,1.78 0.156,0.158 0.19,0.156 1.936,1.844 0.188,0.156 0.156,0.188 0.844,0.875 -13.53,12.875 -0.47,-0.5 -0.375,-0.344 -1.22,-1.156 -0.094,-0.094 -0.25,-0.22 -1.405,-1.184 -0.156,-0.125 -0.188,-0.157 -1.562,-1.22 -0.188,-0.124 -0.156,-0.125 -1.78,-1.218 -0.314,-0.19 -0.03,-0.03 -2.282,-1.438 L 135,150.47 Z m 28.687,32.375 0.25,0.844 0.063,0.25 0.093,0.25 0.5,2.06 0.063,0.22 0.03,0.25 0.406,2.063 0.03,0.25 0.064,0.25 0.28,2.062 0.032,0.22 v 0.25 l 0.188,2.06 0.03,0.22 v 0.22 l 0.095,2.06 v 2.72 l -0.03,0.188 -0.095,2.062 v 0.22 l -0.03,0.186 -0.19,2.064 v 0.156 l -0.03,0.188 -0.156,1.156 -18.53,-2.406 0.124,-0.782 0.03,-0.344 0.126,-1.343 v -0.064 l 0.03,-0.312 0.064,-1.688 v -1.687 l -0.063,-1.19 -0.125,-1.593 -0.28,-2.062 -0.314,-1.563 -0.375,-1.406 -0.03,-0.156 -0.125,-0.344 17.875,-5.53 z m -21.25,35.72 17.28,7.06 -1.093,2.657 -0.062,0.157 -0.063,0.155 -1.625,3.625 -0.062,0.125 -0.063,0.125 -1.687,3.47 -0.03,0.093 -0.064,0.093 -1.686,3.344 -0.063,0.063 -0.03,0.062 -1.688,3.156 -0.03,0.064 -0.032,0.062 -0.313,0.563 -16.343,-9.064 0.25,-0.437 0.062,-0.126 1.53,-2.875 0.095,-0.157 1.532,-2.97 0.094,-0.218 1.47,-3.03 0.124,-0.25 1.406,-3.095 0.125,-0.313 0.97,-2.343 z m -16.47,34.093 17.69,6.03 -0.157,0.407 -0.032,0.063 -1.03,3.5 -0.906,3.437 -0.03,0.22 -0.064,0.186 -0.656,3.314 -0.438,2.687 -0.03,0.22 -0.032,0.25 -0.188,1.906 -18.594,-2 0.282,-2.375 v -0.25 l 0.03,-0.218 0.595,-3.593 0.03,-0.22 0.03,-0.188 0.782,-3.718 0.032,-0.22 0.062,-0.186 0.97,-3.844 0.03,-0.188 0.063,-0.187 1.186,-3.94 0.063,-0.186 0.06,-0.188 0.25,-0.72 z m 207.845,17.375 0.875,0.093 h 0.22 l 0.186,0.03 1.906,0.25 0.22,0.033 0.187,0.03 1.874,0.344 0.187,0.03 0.22,0.032 1.813,0.406 0.218,0.063 0.19,0.063 1.78,0.468 0.22,0.063 0.186,0.06 1.72,0.564 0.218,0.062 0.22,0.063 1.655,0.624 0.217,0.094 0.188,0.093 1.625,0.69 0.22,0.092 0.186,0.094 1.594,0.75 0.188,0.125 0.218,0.095 1.53,0.844 0.19,0.092 0.187,0.125 1.218,0.75 -9.75,15.938 -1.124,-0.688 -0.094,-0.062 -0.75,-0.406 -0.406,-0.19 -0.75,-0.405 -0.187,-0.063 -0.22,-0.125 -1.25,-0.5 -0.844,-0.312 -1.28,-0.438 -0.282,-0.062 -0.156,-0.063 -0.938,-0.25 -0.344,-0.062 -0.062,-0.03 -1,-0.22 -1.47,-0.28 -0.218,-0.033 -0.187,-0.03 -1.44,-0.188 h -0.06 l -0.5,-0.033 1.655,-18.625 z m -21.22,1.5 2.376,11.875 1.47,6.437 -0.188,0.03 -2,0.44 -0.156,0.03 -0.094,0.03 -2,0.533 -0.218,0.062 -2.094,0.594 -0.22,0.062 -2.155,0.688 -0.22,0.062 -2.217,0.75 -0.22,0.094 -2.312,0.844 -0.187,0.062 -2.158,0.844 -6.812,-17.406 2.344,-0.906 0.094,-0.063 0.125,-0.03 2.687,-0.97 0.094,-0.063 0.125,-0.03 2.624,-0.876 0.125,-0.062 0.092,-0.03 2.594,-0.814 0.125,-0.03 0.095,-0.033 2.563,-0.718 0.093,-0.033 0.126,-0.03 2.5,-0.657 0.125,-0.03 0.126,-0.032 2.438,-0.532 0.125,-0.03 0.124,-0.032 0.062,-0.03 z M 284,271.156 l 10.97,15.156 -1.72,1.22 -0.094,0.093 -0.094,0.063 -3.156,2.156 -0.094,0.062 -0.125,0.063 -3.218,2.092 -0.095,0.063 -0.094,0.063 -3.28,2 -0.094,0.062 -0.125,0.063 -3.31,1.906 -0.095,0.06 -0.125,0.064 -1.063,0.594 -8.937,-16.407 0.875,-0.5 0.188,-0.092 2.937,-1.688 0.22,-0.125 2.874,-1.75 0.187,-0.125 2.814,-1.844 0.22,-0.125 2.936,-2.03 1.5,-1.094 z m -133.53,2.72 0.124,0.437 0.062,0.28 0.47,1.376 0.06,0.124 0.908,2.187 0.062,0.19 0.594,1.186 0.125,0.22 0.844,1.5 0.124,0.187 0.97,1.437 0.092,0.125 1.095,1.405 0.094,0.095 1.28,1.406 -13.81,12.595 -1.376,-1.5 -0.22,-0.22 -0.187,-0.25 -1.624,-2.03 -0.187,-0.25 -0.19,-0.28 -1.468,-2.158 -0.187,-0.25 -0.156,-0.28 -1.345,-2.282 -0.156,-0.28 -0.157,-0.283 -1.188,-2.375 -0.125,-0.312 -0.125,-0.28 -1.03,-2.5 -0.126,-0.314 -0.095,-0.31 -0.875,-2.595 -0.094,-0.313 -0.094,-0.312 -0.187,-0.72 18.094,-4.655 z m 230.31,3.312 0.845,1.312 0.063,0.156 0.093,0.125 0.97,1.69 0.063,0.124 0.093,0.125 0.938,1.75 0.062,0.124 0.063,0.156 0.905,1.78 0.063,0.126 0.062,0.125 0.844,1.876 0.062,0.125 0.063,0.095 0.81,1.938 0.033,0.125 0.062,0.093 0.78,1.97 0.033,0.125 0.062,0.125 0.75,2.03 0.03,0.095 0.033,0.094 0.718,2.092 0.033,0.094 0.03,0.125 0.157,0.5 -17.813,5.626 -0.093,-0.312 -0.094,-0.22 -0.563,-1.655 -0.062,-0.22 -0.594,-1.594 -0.092,-0.22 -0.594,-1.53 -0.094,-0.22 -0.625,-1.436 -0.094,-0.25 -0.624,-1.375 -0.125,-0.25 -0.655,-1.313 -0.125,-0.25 -0.656,-1.218 -0.156,-0.25 -0.657,-1.156 -0.186,-0.282 -0.656,-1.062 15.843,-9.906 z m -127.405,10.906 6.97,17.344 -3,1.218 -0.095,0.03 -0.094,0.033 -3.594,1.342 -0.093,0.063 -0.126,0.03 -3.594,1.25 -0.094,0.033 -0.125,0.03 -3.624,1.188 -0.094,0.03 -0.093,0.033 -3.657,1.092 -0.094,0.032 -0.095,0.03 -0.188,0.032 -4.968,-18 0.186,-0.062 3.25,-0.97 0.188,-0.062 3.22,-1.03 0.217,-0.063 3.407,-1.22 v 0.03 l 3.188,-1.217 0.22,-0.094 2.78,-1.126 z m -83.75,6.156 0.25,0.125 0.063,0.03 2.218,0.876 0.375,0.126 1.97,0.688 0.25,0.062 0.156,0.063 2.094,0.592 0.125,0.032 0.22,0.062 2.56,0.625 2.314,0.5 0.186,0.033 0.156,0.03 2.75,0.438 -1.468,8.72 -0.094,0.5 -1.22,9.28 -0.186,-0.03 -0.156,-0.03 -3.063,-0.533 -0.188,-0.03 -0.156,-0.032 -3.03,-0.625 -0.156,-0.03 -0.188,-0.033 -2.937,-0.718 -0.157,-0.064 -0.188,-0.062 -2.844,-0.813 -0.186,-0.06 -0.22,-0.064 -2.75,-0.937 -0.186,-0.064 -0.22,-0.094 -2.655,-1.03 -0.188,-0.094 -0.22,-0.094 -0.655,-0.28 7.625,-17.064 z m 49.938,3.53 2.843,18.47 -3.344,0.5 -0.125,0.03 h -0.125 l -3.562,0.47 h -0.125 l -0.094,0.03 -3.56,0.345 -0.126,0.03 h -0.125 l -3.5,0.283 h -0.251 l -3.47,0.187 h -0.25 l -1.156,0.03 -0.406,-18.686 0.906,-0.033 h 0.25 l 2.97,-0.156 3.25,-0.217 v -0.032 l 3.31,-0.31 0.19,-0.033 h 0.06 l 3.095,-0.406 0.124,-0.03 h 0.094 l 3.125,-0.47 z m 174.5,18 0.375,2.376 0.03,0.125 v 0.158 l 0.72,5.218 v 0.125 l 0.03,0.126 0.563,5.406 v 0.219 l 0.47,5.564 -18.625,1.5 -0.438,-5.344 -0.03,-0.22 -0.5,-4.905 v -0.063 l -0.032,-0.218 -0.625,-4.656 -0.03,-0.282 -0.376,-2.125 18.47,-3 z M 326.5,346.595 c 18.893,3.46 44.913,16.187 68.875,33.875 7.46,-9.835 14.425,-20.4 21.313,-31.095 l 30.062,12.97 c -4.686,12.21 -14.99,25.518 -28.563,37.186 17.017,16.166 30.87,34.515 37,52.94 -13.806,-18.108 -31.07,-31.73 -50.28,-42.814 -23.387,15.846 -52.682,25.93 -79.626,20.438 22.915,-4.383 40.644,-16.56 55.814,-32.594 -16.462,-7.504 -33.798,-13.877 -51.25,-20.094 l -3.344,-30.812 z"
       id="path3828"
       inkscape:connector-curvature="0"
       style="fill:#ffffff;fill-opacity:1" />
  </g>
</svg>
