<?xml version="1.0" encoding="UTF-8" standalone="no"?>
<!-- Created with Inkscape (http://www.inkscape.org/) -->

<svg
   xmlns:dc="http://purl.org/dc/elements/1.1/"
   xmlns:cc="http://creativecommons.org/ns#"
   xmlns:rdf="http://www.w3.org/1999/02/22-rdf-syntax-ns#"
   xmlns:svg="http://www.w3.org/2000/svg"
   xmlns="http://www.w3.org/2000/svg"
   xmlns:sodipodi="http://sodipodi.sourceforge.net/DTD/sodipodi-0.dtd"
   xmlns:inkscape="http://www.inkscape.org/namespaces/inkscape"
   width="10.013949mm"
   height="10.013597mm"
   viewBox="0 0 10.013949 10.013597"
   version="1.1"
   id="svg12972"
   inkscape:version="0.92.4 (5da689c313, 2019-01-14)"
   sodipodi:docname="muddled.svg">
  <defs
     id="defs12966" />
  <sodipodi:namedview
     id="base"
     pagecolor="#ffffff"
     bordercolor="#666666"
     borderopacity="1.0"
     inkscape:pageopacity="0.0"
     inkscape:pageshadow="2"
     inkscape:zoom="0.35"
     inkscape:cx="-339.64743"
     inkscape:cy="-78.219519"
     inkscape:document-units="mm"
     inkscape:current-layer="layer1"
     showgrid="false"
     inkscape:window-width="1920"
     inkscape:window-height="1017"
     inkscape:window-x="1912"
     inkscape:window-y="-8"
     inkscape:window-maximized="1" />
  <metadata
     id="metadata12969">
    <rdf:RDF>
      <cc:Work
         rdf:about="">
        <dc:format>image/svg+xml</dc:format>
        <dc:type
           rdf:resource="http://purl.org/dc/dcmitype/StillImage" />
        <dc:title></dc:title>
      </cc:Work>
    </rdf:RDF>
  </metadata>
  <g
     inkscape:label="Layer 1"
     inkscape:groupmode="layer"
     id="layer1"
     transform="translate(-84.951358,-118.12416)">
    <g
       transform="matrix(0.35277777,0,0,-0.35277777,94.965308,126.57283)"
       id="g2200">
      <path
         inkscape:connector-curvature="0"
         id="path2202"
         style="fill:#231f20;fill-opacity:1;fill-rule:nonzero;stroke:none"
         d="M 0,0 C 0,-2.451 -1.986,-4.436 -4.437,-4.436 H -23.95 c -2.451,0 -4.436,1.985 -4.436,4.436 v 19.514 c 0,2.449 1.985,4.435 4.436,4.435 H -4.437 C -1.986,23.949 0,21.963 0,19.514 Z" />
    </g>
    <g
       transform="matrix(0.35277777,0,0,-0.35277777,93.304077,120.02918)"
       id="g2204">
      <path
         inkscape:connector-curvature="0"
         id="path2206"
         style="fill:none;stroke:#ffffff;stroke-width:2;stroke-linecap:butt;stroke-linejoin:miter;stroke-miterlimit:4;stroke-dasharray:none;stroke-opacity:1"
         d="M 0,0 V -3.881 C 0,-4.71 -0.674,-5.383 -1.503,-5.383 h -3.881" />
    </g>
    <g
       transform="matrix(0.35277777,0,0,-0.35277777,92.832094,120.30482)"
       id="g2208">
      <path
         inkscape:connector-curvature="0"
         id="path2210"
         style="fill:#ffffff;fill-opacity:1;fill-rule:nonzero;stroke:none"
         d="M 0,0 1.316,2.279 2.634,0 Z" />
    </g>
    <g
       transform="matrix(0.35277777,0,0,-0.35277777,89.072119,121.78136)"
       id="g2212">
      <path
         inkscape:connector-curvature="0"
         id="path2214"
         style="fill:#ffffff;fill-opacity:1;fill-rule:nonzero;stroke:none"
         d="m 0,0 c -0.071,-0.781 -0.761,-1.361 -1.545,-1.292 -0.782,0.069 -1.362,0.761 -1.291,1.543 0.069,0.782 0.759,1.363 1.544,1.293 C -0.511,1.475 0.067,0.784 0,0" />
    </g>
    <g
       transform="matrix(0.35277777,0,0,-0.35277777,87.315463,122.73428)"
       id="g2216">
      <path
         inkscape:connector-curvature="0"
         id="path2218"
         style="fill:#ffffff;fill-opacity:1;fill-rule:nonzero;stroke:none"
         d="m 0,0 c 0.021,-0.441 -0.318,-0.816 -0.76,-0.84 -0.44,-0.021 -0.814,0.318 -0.837,0.758 l -0.28,4.014 c -0.022,0.44 0.317,0.816 0.758,0.838 0.44,0.023 0.816,-0.317 0.84,-0.756 z" />
    </g>
    <g
       transform="matrix(0.35277777,0,0,-0.35277777,87.069506,123.04088)"
       id="g2220">
      <path
         inkscape:connector-curvature="0"
         id="path2222"
         style="fill:#ffffff;fill-opacity:1;fill-rule:nonzero;stroke:none"
         d="m 0,0 c -0.438,-0.025 -0.814,0.316 -0.836,0.756 -0.022,0.441 0.315,0.816 0.759,0.838 L 8.868,2.25 C 9.31,2.273 9.684,1.934 9.705,1.492 9.729,1.055 9.39,0.678 8.948,0.656 Z" />
    </g>
    <g
       transform="matrix(0.35277777,0,0,-0.35277777,90.554878,122.4952)"
       id="g2224">
      <path
         inkscape:connector-curvature="0"
         id="path2226"
         style="fill:#ffffff;fill-opacity:1;fill-rule:nonzero;stroke:none"
         d="m 0,0 c 0.023,-0.441 -0.316,-0.815 -0.758,-0.838 -0.442,-0.023 -0.815,0.317 -0.839,0.756 l -0.096,4.068 c -0.022,0.441 0.315,0.815 0.756,0.839 0.442,0.023 0.816,-0.317 0.839,-0.756 z" />
    </g>
    <g
       transform="matrix(0.35277777,0,0,-0.35277777,90.327514,126.9256)"
       id="g2228">
      <path
         inkscape:connector-curvature="0"
         id="path2230"
         style="fill:#ffffff;fill-opacity:1;fill-rule:nonzero;stroke:none"
         d="m 0,0 c -0.045,-0.44 -0.436,-0.76 -0.876,-0.716 -0.438,0.046 -0.759,0.437 -0.715,0.876 l 0.518,4.036 c 0.046,0.439 0.434,0.759 0.875,0.716 C 0.241,4.867 0.563,4.475 0.517,4.036 Z" />
    </g>
    <g
       transform="matrix(0.35277777,0,0,-0.35277777,88.816849,125.09074)"
       id="g2232">
      <path
         inkscape:connector-curvature="0"
         id="path2234"
         style="fill:#ffffff;fill-opacity:1;fill-rule:nonzero;stroke:none"
         d="m 0,0 c -0.4,0.187 -0.575,0.66 -0.39,1.061 0.187,0.4 0.661,0.576 1.064,0.39 L 4.319,-0.355 C 4.72,-0.541 4.893,-1.017 4.709,-1.418 4.523,-1.818 4.046,-1.992 3.646,-1.807 Z" />
    </g>
    <g
       transform="matrix(0.35277777,0,0,-0.35277777,86.282281,126.219)"
       id="g2236">
      <path
         inkscape:connector-curvature="0"
         id="path2238"
         style="fill:#ffffff;fill-opacity:1;fill-rule:nonzero;stroke:none"
         d="m 0,0 c -0.436,0.079 -0.721,0.495 -0.641,0.928 0.08,0.434 0.497,0.723 0.93,0.641 L 4.27,0.722 C 4.704,0.642 4.992,0.226 4.912,-0.21 4.831,-0.644 4.413,-0.929 3.979,-0.85 Z" />
    </g>
    <g
       transform="matrix(0.35277777,0,0,-0.35277777,88.235647,124.86476)"
       id="g2240">
      <path
         inkscape:connector-curvature="0"
         id="path2242"
         style="fill:#ffffff;fill-opacity:1;fill-rule:nonzero;stroke:none"
         d="m 0,0 c 0.217,0.383 0.704,0.517 1.088,0.299 0.384,-0.219 0.52,-0.705 0.3,-1.09 l -2.101,-3.484 c -0.216,-0.385 -0.706,-0.52 -1.089,-0.303 -0.381,0.217 -0.517,0.707 -0.3,1.092 z" />
    </g>
    <g
       transform="matrix(0.35277777,0,0,-0.35277777,89.488645,124.87714)"
       id="g2244">
      <path
         inkscape:connector-curvature="0"
         id="path2246"
         style="fill:#ffffff;fill-opacity:1;fill-rule:nonzero;stroke:none"
         d="M 0,0 C 0.037,-0.729 -0.377,-0.8 -1.076,-0.832 L -2.721,-0.91 c -0.702,-0.033 -1.217,-1.638 -1.296,-0.252 l -0.276,6.644 c -0.032,0.731 0.508,1.35 1.211,1.383 l 1.643,0.076 c 0.702,0.034 1.297,-0.533 1.333,-1.264 z" />
    </g>
    <g
       transform="matrix(0.35277777,0,0,-0.35277777,87.968312,119.92033)"
       id="g2248">
      <path
         inkscape:connector-curvature="0"
         id="path2250"
         style="fill:none;stroke:#ffffff;stroke-width:0.5;stroke-linecap:butt;stroke-linejoin:miter;stroke-miterlimit:4;stroke-dasharray:none;stroke-opacity:1"
         d="M 0,0 C 0,0 1.816,-2.378 1.504,-4.506" />
    </g>
    <g
       transform="matrix(0.35277777,0,0,-0.35277777,87.815348,119.65059)"
       id="g2252">
      <path
         inkscape:connector-curvature="0"
         id="path2254"
         style="fill:#ffffff;fill-opacity:1;fill-rule:nonzero;stroke:none"
         d="M 0,0 C 0,0 -1.765,2.981 0,2.981 1.766,2.981 0,0 0,0" />
    </g>
    <g
       transform="matrix(0.35277777,0,0,-0.35277777,87.795735,119.63924)"
       id="g2256">
      <path
         inkscape:connector-curvature="0"
         id="path2258"
         style="fill:#ffffff;fill-opacity:1;fill-rule:nonzero;stroke:none"
         d="M 0,0 C 0,0 1.647,3.053 2.558,1.537 3.468,0.025 0,0 0,0" />
    </g>
    <g
       transform="matrix(0.35277777,0,0,-0.35277777,87.79778,119.61786)"
       id="g2260">
      <path
         inkscape:connector-curvature="0"
         id="path2262"
         style="fill:#ffffff;fill-opacity:1;fill-rule:nonzero;stroke:none"
         d="M 0,0 C 0,0 3.466,-0.025 2.555,-1.537 1.643,-3.05 0,0 0,0" />
    </g>
    <g
       transform="matrix(0.35277777,0,0,-0.35277777,87.817782,119.60685)"
       id="g2264">
      <path
         inkscape:connector-curvature="0"
         id="path2266"
         style="fill:#ffffff;fill-opacity:1;fill-rule:nonzero;stroke:none"
         d="M 0,0 C 0,0 1.771,-2.979 0.005,-2.982 -1.759,-2.985 0,0 0,0" />
    </g>
    <g
       transform="matrix(0.35277777,0,0,-0.35277777,87.836727,119.62199)"
       id="g2268">
      <path
         inkscape:connector-curvature="0"
         id="path2270"
         style="fill:#ffffff;fill-opacity:1;fill-rule:nonzero;stroke:none"
         d="M 0,0 C 0,0 -1.725,-3.006 -2.596,-1.469 -3.464,0.066 0,0 0,0" />
    </g>
    <g
       transform="matrix(0.35277777,0,0,-0.35277777,87.831541,119.64403)"
       id="g2272">
      <path
         inkscape:connector-curvature="0"
         id="path2274"
         style="fill:#ffffff;fill-opacity:1;fill-rule:nonzero;stroke:none"
         d="M 0,0 C 0,0 -3.465,0.088 -2.528,1.584 -1.591,3.079 0,0 0,0" />
    </g>
    <g
       transform="matrix(0.35277777,0,0,-0.35277777,88.49233,121.30251)"
       id="g2276">
      <path
         inkscape:connector-curvature="0"
         id="path2278"
         style="fill:#ffffff;fill-opacity:1;fill-rule:nonzero;stroke:none"
         d="m 0,0 c 0,0 -0.302,1.463 1.377,1.592 0,0 0.043,-1.636 -1.377,-1.721" />
    </g>
    <g
       transform="matrix(0.35277777,0,0,-0.35277777,88.560203,121.2529)"
       id="g2280">
      <path
         inkscape:connector-curvature="0"
         id="path2282"
         style="fill:#ffffff;fill-opacity:1;fill-rule:nonzero;stroke:none"
         d="m 0,0 c 0,0 -0.448,1.424 -1.98,0.722 0,0 0.758,-1.451 2.042,-0.835" />
    </g>
    <g
       transform="matrix(0.35277777,0,0,-0.35277777,88.110589,119.66128)"
       id="g2284">
      <path
         inkscape:connector-curvature="0"
         id="path2286"
         style="fill:#231f20;fill-opacity:1;fill-rule:nonzero;stroke:none"
         d="m 0,0 c 0,-0.439 -0.358,-0.797 -0.798,-0.797 -0.441,0 -0.797,0.358 -0.797,0.797 0,0.439 0.356,0.797 0.797,0.797 C -0.358,0.797 0,0.439 0,0" />
    </g>
  </g>
</svg>
