<?xml version="1.0" encoding="UTF-8" standalone="no"?>
<!-- Created with Inkscape (http://www.inkscape.org/) -->

<svg
   xmlns:dc="http://purl.org/dc/elements/1.1/"
   xmlns:cc="http://creativecommons.org/ns#"
   xmlns:rdf="http://www.w3.org/1999/02/22-rdf-syntax-ns#"
   xmlns:svg="http://www.w3.org/2000/svg"
   xmlns="http://www.w3.org/2000/svg"
   xmlns:sodipodi="http://sodipodi.sourceforge.net/DTD/sodipodi-0.dtd"
   xmlns:inkscape="http://www.inkscape.org/namespaces/inkscape"
   width="10.013597mm"
   height="10.013597mm"
   viewBox="0 0 10.013597 10.013597"
   version="1.1"
   id="svg13134"
   inkscape:version="0.92.4 (5da689c313, 2019-01-14)"
   sodipodi:docname="poison.svg">
  <defs
     id="defs13128" />
  <sodipodi:namedview
     id="base"
     pagecolor="#ffffff"
     bordercolor="#666666"
     borderopacity="1.0"
     inkscape:pageopacity="0.0"
     inkscape:pageshadow="2"
     inkscape:zoom="0.35"
     inkscape:cx="-231.07667"
     inkscape:cy="-69.64808"
     inkscape:document-units="mm"
     inkscape:current-layer="layer1"
     showgrid="false"
     inkscape:window-width="1920"
     inkscape:window-height="1017"
     inkscape:window-x="1912"
     inkscape:window-y="-8"
     inkscape:window-maximized="1" />
  <metadata
     id="metadata13131">
    <rdf:RDF>
      <cc:Work
         rdf:about="">
        <dc:format>image/svg+xml</dc:format>
        <dc:type
           rdf:resource="http://purl.org/dc/dcmitype/StillImage" />
        <dc:title></dc:title>
      </cc:Work>
    </rdf:RDF>
  </metadata>
  <g
     inkscape:label="Layer 1"
     inkscape:groupmode="layer"
     id="layer1"
     transform="translate(-56.225344,-120.39202)">
    <g
       transform="matrix(0.35277777,0,0,-0.35277777,66.238941,128.84069)"
       id="g2092">
      <path
         inkscape:connector-curvature="0"
         id="path2094"
         style="fill:#231f20;fill-opacity:1;fill-rule:nonzero;stroke:none"
         d="M 0,0 C 0,-2.449 -1.983,-4.436 -4.436,-4.436 H -23.95 c -2.449,0 -4.435,1.987 -4.435,4.436 v 19.514 c 0,2.449 1.986,4.435 4.435,4.435 H -4.436 C -1.983,23.949 0,21.963 0,19.514 Z" />
    </g>
    <g
       transform="matrix(0.35277777,0,0,-0.35277777,59.951981,124.6618)"
       id="g2096">
      <path
         inkscape:connector-curvature="0"
         id="path2098"
         style="fill:#ffffff;fill-opacity:1;fill-rule:nonzero;stroke:none"
         d="m 0,0 c -1.229,0.995 -3.198,1.379 -3.311,3.107 -0.111,1.728 2.376,4.563 6.98,4.864 4.606,0.3 7.864,-2.016 7.995,-4.03 C 11.797,1.926 9.889,1.631 8.783,0.5 6.818,-1.506 8.13,-2.793 7.222,-4.371 6.502,-5.619 4.208,-6.373 4.318,-8.029 c 0.107,-1.655 6.294,-1.213 5.47,0.863 -0.315,0.805 -4.78,0.736 -6.547,-0.969 -1.15,-1.107 -0.07,1.426 -0.799,1.176 0,0 7.427,4.1 9.76,0.457 1.209,-1.886 -0.793,-4.459 -3.627,-5.294 -5.403,-1.593 -9.571,1.245 -9.614,3.345 -0.031,1.59 0.499,2.346 1.247,4.128 C 0.961,-2.539 0.991,-0.803 0,0" />
    </g>
    <g
       transform="matrix(0.35277777,0,0,-0.35277777,59.909965,127.15018)"
       id="g2100">
      <path
         inkscape:connector-curvature="0"
         id="path2102"
         style="fill:#ffffff;fill-opacity:1;fill-rule:nonzero;stroke:none"
         d="m 0,0 c 0,0 -2.336,-2.952 -4.949,-1.083 0,0 0.486,-1.918 2.836,-1.945 2.457,-0.028 4.259,1.16 4.259,1.16 z" />
    </g>
    <g
       transform="matrix(0.35277777,0,0,-0.35277777,60.609666,123.80535)"
       id="g2104">
      <path
         inkscape:connector-curvature="0"
         id="path2106"
         style="fill:none;stroke:#231f20;stroke-width:0.648;stroke-linecap:butt;stroke-linejoin:miter;stroke-miterlimit:4;stroke-dasharray:none;stroke-opacity:1"
         d="m 0,0 c 0,0 -0.54,-1.119 0.026,-3.178 0.569,-2.057 -0.232,-4.17 -1.049,-5.523 -1.022,-1.701 -0.309,-5.766 5.781,-6.09" />
    </g>
    <g
       transform="matrix(0.35277777,0,0,-0.35277777,62.291887,123.79707)"
       id="g2108">
      <path
         inkscape:connector-curvature="0"
         id="path2110"
         style="fill:none;stroke:#231f20;stroke-width:0.648;stroke-linecap:butt;stroke-linejoin:miter;stroke-miterlimit:4;stroke-dasharray:none;stroke-opacity:1"
         d="m 0,0 c 0,0 0.073,-2.814 -0.335,-4.286 -0.41,-1.472 -1.724,-3.816 -2.338,-4.597 -0.9,-1.142 -1.284,-3.588 1.773,-3.895 3.052,-0.306 6.285,0.555 6.565,4.044" />
    </g>
    <g
       transform="matrix(0.35277777,0,0,-0.35277777,61.531226,127.37754)"
       id="g2112">
      <path
         inkscape:connector-curvature="0"
         id="path2114"
         style="fill:none;stroke:#231f20;stroke-width:0.648;stroke-linecap:butt;stroke-linejoin:miter;stroke-miterlimit:4;stroke-dasharray:none;stroke-opacity:1"
         d="M 0,0 C 0,0 0.129,1.344 2.567,2.733" />
    </g>
    <g
       transform="matrix(0.35277777,0,0,-0.35277777,60.201396,122.62091)"
       id="g2116">
      <path
         inkscape:connector-curvature="0"
         id="path2118"
         style="fill:none;stroke:#231f20;stroke-width:0.648;stroke-linecap:butt;stroke-linejoin:miter;stroke-miterlimit:4;stroke-dasharray:none;stroke-opacity:1"
         d="m 0,0 c 0,0 0.507,-5.025 3.601,-4.823 3.094,0.202 3.436,4.921 3.436,4.921" />
    </g>
    <g
       transform="matrix(0.35277777,0,0,-0.35277777,61.289714,124.11679)"
       id="g2120">
      <path
         inkscape:connector-curvature="0"
         id="path2122"
         style="fill:#231f20;fill-opacity:1;fill-rule:nonzero;stroke:none"
         d="m 0,0 c -0.034,-0.079 -0.227,-0.078 -0.43,0.007 -0.2,0.085 -0.336,0.218 -0.302,0.3 C -0.7,0.389 -0.508,0.384 -0.305,0.299 -0.104,0.215 0.032,0.081 0,0" />
    </g>
    <g
       transform="matrix(0.35277777,0,0,-0.35277777,61.803395,124.02926)"
       id="g2124">
      <path
         inkscape:connector-curvature="0"
         id="path2126"
         style="fill:#231f20;fill-opacity:1;fill-rule:nonzero;stroke:none"
         d="m 0,0 c -0.062,0.085 -0.252,0.088 -0.427,0.01 -0.177,-0.076 -0.27,-0.207 -0.212,-0.289 0.06,-0.084 0.251,-0.086 0.428,-0.01 C -0.033,-0.211 0.059,-0.082 0,0" />
    </g>
    <g
       transform="matrix(0.35277777,0,0,-0.35277777,60.956588,123.26031)"
       id="g2128">
      <path
         inkscape:connector-curvature="0"
         id="path2130"
         style="fill:#231f20;fill-opacity:1;fill-rule:nonzero;stroke:none"
         d="m 0,0 c 0.015,-0.238 -0.165,-0.443 -0.403,-0.459 -0.239,-0.016 -0.446,0.166 -0.461,0.404 -0.015,0.239 0.167,0.444 0.402,0.459 C -0.223,0.42 -0.016,0.239 0,0" />
    </g>
    <g
       transform="matrix(0.35277777,0,0,-0.35277777,62.191309,123.24242)"
       id="g2132">
      <path
         inkscape:connector-curvature="0"
         id="path2134"
         style="fill:#231f20;fill-opacity:1;fill-rule:nonzero;stroke:none"
         d="m 0,0 c 0.015,-0.24 -0.162,-0.445 -0.403,-0.462 -0.24,-0.017 -0.443,0.165 -0.459,0.403 -0.017,0.239 0.165,0.444 0.403,0.46 C -0.221,0.416 -0.014,0.236 0,0" />
    </g>
    <g
       transform="matrix(0.35277777,0,0,-0.35277777,61.305203,124.30763)"
       id="g2136">
      <path
         inkscape:connector-curvature="0"
         id="path2138"
         style="fill:#231f20;fill-opacity:1;fill-rule:nonzero;stroke:none"
         d="m 0,0 c 0,0 0.032,-1.589 0.349,-2.037 l 0.22,0.52 0.385,-0.372 c 0,0 -0.274,1.426 -0.083,1.836 z" />
    </g>
    <g
       transform="matrix(0.35277777,0,0,-0.35277777,60.538687,124.47231)"
       id="g2140">
      <path
         inkscape:connector-curvature="0"
         id="path2142"
         style="fill:none;stroke:#231f20;stroke-width:0.648;stroke-linecap:butt;stroke-linejoin:miter;stroke-miterlimit:4;stroke-dasharray:none;stroke-opacity:1"
         d="M 0,0 C 0,0 1.89,-1.287 4.913,-0.006" />
    </g>
    <g
       transform="matrix(0.35277777,0,0,-0.35277777,60.676834,125.22817)"
       id="g2144">
      <path
         inkscape:connector-curvature="0"
         id="path2146"
         style="fill:none;stroke:#231f20;stroke-width:0.648;stroke-linecap:butt;stroke-linejoin:miter;stroke-miterlimit:4;stroke-dasharray:none;stroke-opacity:1"
         d="M 0,0 C 0,0 2.52,-0.956 4.301,-0.008" />
    </g>
    <g
       transform="matrix(0.35277777,0,0,-0.35277777,60.680961,125.8786)"
       id="g2148">
      <path
         inkscape:connector-curvature="0"
         id="path2150"
         style="fill:none;stroke:#231f20;stroke-width:0.648;stroke-linecap:butt;stroke-linejoin:miter;stroke-miterlimit:4;stroke-dasharray:none;stroke-opacity:1"
         d="M 0,0 C 0,0 1.577,-0.822 3.557,-0.236" />
    </g>
    <g
       transform="matrix(0.35277777,0,0,-0.35277777,60.466331,126.49113)"
       id="g2152">
      <path
         inkscape:connector-curvature="0"
         id="path2154"
         style="fill:none;stroke:#231f20;stroke-width:0.648;stroke-linecap:butt;stroke-linejoin:miter;stroke-miterlimit:4;stroke-dasharray:none;stroke-opacity:1"
         d="M 0,0 C 0,0 1.328,-0.962 3.132,-0.374" />
    </g>
    <g
       transform="matrix(0.35277777,0,0,-0.35277777,60.146646,127.06025)"
       id="g2156">
      <path
         inkscape:connector-curvature="0"
         id="path2158"
         style="fill:none;stroke:#231f20;stroke-width:0.648;stroke-linecap:butt;stroke-linejoin:miter;stroke-miterlimit:4;stroke-dasharray:none;stroke-opacity:1"
         d="M 0,0 C 0,0 1.254,-0.931 2.981,-0.275" />
    </g>
    <g
       transform="matrix(0.35277777,0,0,-0.35277777,60.198644,127.84712)"
       id="g2160">
      <path
         inkscape:connector-curvature="0"
         id="path2162"
         style="fill:none;stroke:#231f20;stroke-width:0.63200003;stroke-linecap:butt;stroke-linejoin:miter;stroke-miterlimit:4;stroke-dasharray:none;stroke-opacity:1"
         d="M 0,0 C 0,0 1.686,-0.613 2.732,0.179" />
    </g>
    <g
       transform="matrix(0.35277777,0,0,-0.35277777,60.56832,128.44728)"
       id="g2164">
      <path
         inkscape:connector-curvature="0"
         id="path2166"
         style="fill:none;stroke:#231f20;stroke-width:0.63200003;stroke-linecap:butt;stroke-linejoin:miter;stroke-miterlimit:4;stroke-dasharray:none;stroke-opacity:1"
         d="M 0,0 C 0,0 1.647,-0.326 2.588,0.746" />
    </g>
    <g
       transform="matrix(0.35277777,0,0,-0.35277777,61.490904,128.8972)"
       id="g2168">
      <path
         inkscape:connector-curvature="0"
         id="path2170"
         style="fill:none;stroke:#231f20;stroke-width:0.63200003;stroke-linecap:butt;stroke-linejoin:miter;stroke-miterlimit:4;stroke-dasharray:none;stroke-opacity:1"
         d="M 0,0 C 0,0 1.532,0.319 1.991,1.576" />
    </g>
    <g
       transform="matrix(0.35277777,0,0,-0.35277777,62.394228,129.06738)"
       id="g2172">
      <path
         inkscape:connector-curvature="0"
         id="path2174"
         style="fill:none;stroke:#231f20;stroke-width:0.63200003;stroke-linecap:butt;stroke-linejoin:miter;stroke-miterlimit:4;stroke-dasharray:none;stroke-opacity:1"
         d="M 0,0 C 0,0 1.779,0.406 1.7,2.17" />
    </g>
    <g
       transform="matrix(0.35277777,0,0,-0.35277777,63.625845,128.03111)"
       id="g2176">
      <path
         inkscape:connector-curvature="0"
         id="path2178"
         style="fill:none;stroke:#231f20;stroke-width:0.63200003;stroke-linecap:butt;stroke-linejoin:miter;stroke-miterlimit:4;stroke-dasharray:none;stroke-opacity:1"
         d="M 0,0 C 0,0 0.334,-1.241 -0.164,-1.926" />
    </g>
    <g
       transform="matrix(0.35277777,0,0,-0.35277777,64.103331,127.52811)"
       id="g2180">
      <path
         inkscape:connector-curvature="0"
         id="path2182"
         style="fill:none;stroke:#231f20;stroke-width:0.63200003;stroke-linecap:butt;stroke-linejoin:miter;stroke-miterlimit:4;stroke-dasharray:none;stroke-opacity:1"
         d="M 0,0 C 0,0 0.574,-1.082 0.327,-1.714" />
    </g>
    <g
       transform="matrix(0.35277777,0,0,-0.35277777,59.562692,127.08576)"
       id="g2184">
      <path
         inkscape:connector-curvature="0"
         id="path2186"
         style="fill:none;stroke:#231f20;stroke-width:0.63200003;stroke-linecap:butt;stroke-linejoin:miter;stroke-miterlimit:4;stroke-dasharray:none;stroke-opacity:1"
         d="M 0,0 C 0,0 -0.274,-2.439 0.956,-3.586" />
    </g>
    <g
       transform="matrix(0.35277777,0,0,-0.35277777,58.042713,127.63112)"
       id="g2188">
      <path
         inkscape:connector-curvature="0"
         id="path2190"
         style="fill:none;stroke:#231f20;stroke-width:0.63200003;stroke-linecap:butt;stroke-linejoin:miter;stroke-miterlimit:4;stroke-dasharray:none;stroke-opacity:1"
         d="M 0,0 C 0,0 1.587,-1.63 4.437,-0.434" />
    </g>
    <g
       transform="matrix(0.35277777,0,0,-0.35277777,59.233338,127.90983)"
       id="g2192">
      <path
         inkscape:connector-curvature="0"
         id="path2194"
         style="fill:none;stroke:#231f20;stroke-width:0.63200003;stroke-linecap:butt;stroke-linejoin:miter;stroke-miterlimit:4;stroke-dasharray:none;stroke-opacity:1"
         d="M 0,0 C 0,0 0.034,-1.047 0.527,-1.412" />
    </g>
    <g
       transform="matrix(0.35277777,0,0,-0.35277777,58.712778,127.94428)"
       id="g2196">
      <path
         inkscape:connector-curvature="0"
         id="path2198"
         style="fill:none;stroke:#231f20;stroke-width:0.63200003;stroke-linecap:butt;stroke-linejoin:miter;stroke-miterlimit:4;stroke-dasharray:none;stroke-opacity:1"
         d="M 0,0 C 0,0 -0.09,-0.836 0.152,-1.217" />
    </g>
  </g>
</svg>
