<?xml version="1.0" encoding="UTF-8" standalone="no"?>
<!-- Created with Inkscape (http://www.inkscape.org/) -->

<svg
   xmlns:dc="http://purl.org/dc/elements/1.1/"
   xmlns:cc="http://creativecommons.org/ns#"
   xmlns:rdf="http://www.w3.org/1999/02/22-rdf-syntax-ns#"
   xmlns:svg="http://www.w3.org/2000/svg"
   xmlns="http://www.w3.org/2000/svg"
   xmlns:sodipodi="http://sodipodi.sourceforge.net/DTD/sodipodi-0.dtd"
   xmlns:inkscape="http://www.inkscape.org/namespaces/inkscape"
   width="10.013245mm"
   height="10.013597mm"
   viewBox="0 0 10.013245 10.013597"
   version="1.1"
   id="svg13415"
   inkscape:version="0.92.4 (5da689c313, 2019-01-14)"
   sodipodi:docname="shock.svg">
  <defs
     id="defs13409" />
  <sodipodi:namedview
     id="base"
     pagecolor="#ffffff"
     bordercolor="#666666"
     borderopacity="1.0"
     inkscape:pageopacity="0.0"
     inkscape:pageshadow="2"
     inkscape:zoom="0.35"
     inkscape:cx="-333.93448"
     inkscape:cy="-109.64808"
     inkscape:document-units="mm"
     inkscape:current-layer="layer1"
     showgrid="false"
     inkscape:window-width="1920"
     inkscape:window-height="1017"
     inkscape:window-x="1912"
     inkscape:window-y="-8"
     inkscape:window-maximized="1" />
  <metadata
     id="metadata13412">
    <rdf:RDF>
      <cc:Work
         rdf:about="">
        <dc:format>image/svg+xml</dc:format>
        <dc:type
           rdf:resource="http://purl.org/dc/dcmitype/StillImage" />
        <dc:title></dc:title>
      </cc:Work>
    </rdf:RDF>
  </metadata>
  <g
     inkscape:label="Layer 1"
     inkscape:groupmode="layer"
     id="layer1"
     transform="translate(-83.439807,-109.80868)">
    <g
       transform="matrix(0.35277777,0,0,-0.35277777,93.453051,118.25771)"
       id="g2288">
      <path
         inkscape:connector-curvature="0"
         id="path2290"
         style="fill:#231f20;fill-opacity:1;fill-rule:nonzero;stroke:none"
         d="m 0,0 c 0,-2.45 -1.985,-4.435 -4.435,-4.435 h -19.513 c -2.449,0 -4.436,1.985 -4.436,4.435 v 19.515 c 0,2.449 1.987,4.435 4.436,4.435 H -4.435 C -1.985,23.95 0,21.964 0,19.515 Z" />
    </g>
    <g
       transform="matrix(0.35277777,0,0,-0.35277777,87.58364,115.60465)"
       id="g2292">
      <path
         inkscape:connector-curvature="0"
         id="path2294"
         style="fill:#ffffff;fill-opacity:1;fill-rule:nonzero;stroke:none"
         d="M 0,0 2.236,2.561 -0.41,5.166 0.574,7.301 c -0.5,0.804 -1.843,2.756 -3.662,2.585 -4.485,-0.419 -4.151,-5.175 -4.151,-5.175 0.5,-6.76 8.286,-10.166 8.286,-10.166 0,0 0.05,0.025 0.137,0.07 l 1.595,3.858 z" />
    </g>
    <g
       transform="matrix(0.35277777,0,0,-0.35277777,91.939634,114.44916)"
       id="g2296">
      <path
         inkscape:connector-curvature="0"
         id="path2298"
         style="fill:#ffffff;fill-opacity:1;fill-rule:nonzero;stroke:none"
         d="M 0,0 C 0,0 0.695,4.26 -3.065,5.023 -5.371,5.49 -7.507,3.279 -7.507,3.279 c 0,0 0.431,0.01 0.329,0.262 L -8.979,1.825 -6.816,-1.33 -9.438,-3.334 -6.967,-5.465 -9.175,-8.884 C -8.085,-8.586 -0.953,-6.395 0,0" />
    </g>
    <g
       transform="matrix(0.35277777,0,0,-0.35277777,90.931606,114.78402)"
       id="g2300">
      <path
         inkscape:connector-curvature="0"
         id="path2302"
         style="fill:none;stroke:#231f20;stroke-width:0.75;stroke-linecap:butt;stroke-linejoin:miter;stroke-miterlimit:4;stroke-dasharray:none;stroke-opacity:1"
         d="M 0,0 C 0.002,-0.412 0.196,-1.201 -0.022,-1.51 -0.203,-1.766 -1.068,-2 -1.347,-2.129 -1.772,-2.328 -2.2,-2.541 -2.669,-2.588" />
    </g>
    <g
       transform="matrix(0.35277777,0,0,-0.35277777,91.756365,112.99602)"
       id="g2304">
      <path
         inkscape:connector-curvature="0"
         id="path2306"
         style="fill:none;stroke:#231f20;stroke-width:0.75;stroke-linecap:butt;stroke-linejoin:miter;stroke-miterlimit:4;stroke-dasharray:none;stroke-opacity:1"
         d="m 0,0 c -0.607,-0.214 -1.451,-1.379 -1.99,-1.586 -0.308,-0.119 -0.844,0.02 -1.202,0.022" />
    </g>
    <g
       transform="matrix(0.35277777,0,0,-0.35277777,91.20342,113.45972)"
       id="g2308">
      <path
         inkscape:connector-curvature="0"
         id="path2310"
         style="fill:none;stroke:#231f20;stroke-width:0.75;stroke-linecap:butt;stroke-linejoin:miter;stroke-miterlimit:4;stroke-dasharray:none;stroke-opacity:1"
         d="M 0,0 C -0.59,-0.563 -0.579,-1.354 -1.063,-1.939" />
    </g>
    <g
       transform="matrix(0.35277777,0,0,-0.35277777,90.960887,115.33594)"
       id="g2312">
      <path
         inkscape:connector-curvature="0"
         id="path2314"
         style="fill:none;stroke:#231f20;stroke-width:0.75;stroke-linecap:butt;stroke-linejoin:miter;stroke-miterlimit:4;stroke-dasharray:none;stroke-opacity:1"
         d="M 0,0 C 0.36,-0.457 1.028,-0.943 1.565,-1.064" />
    </g>
    <g
       transform="matrix(0.35277777,0,0,-0.35277777,90.033115,117.12426)"
       id="g2316">
      <path
         inkscape:connector-curvature="0"
         id="path2318"
         style="fill:none;stroke:#231f20;stroke-width:0.75;stroke-linecap:butt;stroke-linejoin:miter;stroke-miterlimit:4;stroke-dasharray:none;stroke-opacity:1"
         d="M 0,0 C -0.562,0.229 -1.199,0.392 -1.252,1.063" />
    </g>
    <g
       transform="matrix(0.35277777,0,0,-0.35277777,85.352956,112.3118)"
       id="g2320">
      <path
         inkscape:connector-curvature="0"
         id="path2322"
         style="fill:none;stroke:#231f20;stroke-width:0.75;stroke-linecap:butt;stroke-linejoin:miter;stroke-miterlimit:4;stroke-dasharray:none;stroke-opacity:1"
         d="M 0,0 C 0.12,-0.359 0.045,-0.779 0.327,-1.051 0.481,-1.199 0.992,-1.236 1.209,-1.359 2.325,-1.993 2.13,-2.492 2.129,-3.691" />
    </g>
    <g
       transform="matrix(0.35277777,0,0,-0.35277777,85.957228,112.91542)"
       id="g2324">
      <path
         inkscape:connector-curvature="0"
         id="path2326"
         style="fill:none;stroke:#231f20;stroke-width:0.75;stroke-linecap:butt;stroke-linejoin:miter;stroke-miterlimit:4;stroke-dasharray:none;stroke-opacity:1"
         d="M 0,0 C 0.408,-0.244 1.242,-0.062 1.73,-0.04" />
    </g>
    <g
       transform="matrix(0.35277777,0,0,-0.35277777,84.911983,114.67377)"
       id="g2328">
      <path
         inkscape:connector-curvature="0"
         id="path2330"
         style="fill:none;stroke:#231f20;stroke-width:0.75;stroke-linecap:butt;stroke-linejoin:miter;stroke-miterlimit:4;stroke-dasharray:none;stroke-opacity:1"
         d="M 0,0 C 1.32,-0.52 1.017,0.785 1.438,1.314" />
    </g>
    <g
       transform="matrix(0.35277777,0,0,-0.35277777,85.243419,114.67377)"
       id="g2332">
      <path
         inkscape:connector-curvature="0"
         id="path2334"
         style="fill:none;stroke:#231f20;stroke-width:0.75;stroke-linecap:butt;stroke-linejoin:miter;stroke-miterlimit:4;stroke-dasharray:none;stroke-opacity:1"
         d="M 0,0 C 0.417,-0.07 0.792,-0.219 1.189,-0.313" />
    </g>
    <g
       transform="matrix(0.35277777,0,0,-0.35277777,85.508002,115.71146)"
       id="g2336">
      <path
         inkscape:connector-curvature="0"
         id="path2338"
         style="fill:none;stroke:#231f20;stroke-width:0.75;stroke-linecap:butt;stroke-linejoin:miter;stroke-miterlimit:4;stroke-dasharray:none;stroke-opacity:1"
         d="M 0,0 C 0.842,-0.102 1.283,0.096 2.063,0.564" />
    </g>
    <g
       transform="matrix(0.35277777,0,0,-0.35277777,86.442651,116.84486)"
       id="g2340">
      <path
         inkscape:connector-curvature="0"
         id="path2342"
         style="fill:none;stroke:#231f20;stroke-width:0.75;stroke-linecap:butt;stroke-linejoin:miter;stroke-miterlimit:4;stroke-dasharray:none;stroke-opacity:1"
         d="M 0,0 C 0.42,0.465 0.514,1.063 0.813,1.484 1.021,1.779 1.222,1.682 1.38,2.066 1.516,2.4 1.316,2.857 1.564,3.129" />
    </g>
  </g>
</svg>
