<?xml version="1.0" encoding="UTF-8" standalone="no"?>
<!-- Created with Inkscape (http://www.inkscape.org/) -->

<svg
   xmlns:dc="http://purl.org/dc/elements/1.1/"
   xmlns:cc="http://creativecommons.org/ns#"
   xmlns:rdf="http://www.w3.org/1999/02/22-rdf-syntax-ns#"
   xmlns:svg="http://www.w3.org/2000/svg"
   xmlns="http://www.w3.org/2000/svg"
   xmlns:sodipodi="http://sodipodi.sourceforge.net/DTD/sodipodi-0.dtd"
   xmlns:inkscape="http://www.inkscape.org/namespaces/inkscape"
   width="10.013597mm"
   height="10.013597mm"
   viewBox="0 0 10.013597 10.013597"
   version="1.1"
   id="svg13297"
   inkscape:version="0.92.4 (5da689c313, 2019-01-14)"
   sodipodi:docname="sickness.svg">
  <defs
     id="defs13291" />
  <sodipodi:namedview
     id="base"
     pagecolor="#ffffff"
     bordercolor="#666666"
     borderopacity="1.0"
     inkscape:pageopacity="0.0"
     inkscape:pageshadow="2"
     inkscape:zoom="0.35"
     inkscape:cx="-453.93382"
     inkscape:cy="133.20903"
     inkscape:document-units="mm"
     inkscape:current-layer="layer1"
     showgrid="false"
     inkscape:window-width="1920"
     inkscape:window-height="1017"
     inkscape:window-x="1912"
     inkscape:window-y="-8"
     inkscape:window-maximized="1" />
  <metadata
     id="metadata13294">
    <rdf:RDF>
      <cc:Work
         rdf:about="">
        <dc:format>image/svg+xml</dc:format>
        <dc:type
           rdf:resource="http://purl.org/dc/dcmitype/StillImage" />
        <dc:title></dc:title>
      </cc:Work>
    </rdf:RDF>
  </metadata>
  <g
     inkscape:label="Layer 1"
     inkscape:groupmode="layer"
     id="layer1"
     transform="translate(-115.18963,-174.06463)">
    <g
       transform="matrix(0.35277777,0,0,-0.35277777,125.20323,182.5133)"
       id="g1970">
      <path
         inkscape:connector-curvature="0"
         id="path1972"
         style="fill:#231f20;fill-opacity:1;fill-rule:nonzero;stroke:none"
         d="m 0,0 c 0,-2.449 -1.984,-4.436 -4.437,-4.436 h -19.512 c -2.45,0 -4.436,1.987 -4.436,4.436 v 19.514 c 0,2.449 1.986,4.435 4.436,4.435 H -4.437 C -1.984,23.949 0,21.963 0,19.514 Z" />
    </g>
    <g
       transform="matrix(0.35277777,0,0,-0.35277777,118.40848,182.29008)"
       id="g1974">
      <path
         inkscape:connector-curvature="0"
         id="path1976"
         style="fill:#ffffff;fill-opacity:1;fill-rule:nonzero;stroke:none"
         d="m 0,0 c 0,-0.197 -0.173,-0.357 -0.382,-0.357 -0.212,0 -0.383,0.16 -0.383,0.357 v 4.598 c 0,0.198 0.171,0.359 0.383,0.359 C -0.173,4.957 0,4.796 0,4.598 Z" />
    </g>
    <g
       transform="matrix(0.35277777,0,0,-0.35277777,120.89447,183.1672)"
       id="g1978">
      <path
         inkscape:connector-curvature="0"
         id="path1980"
         style="fill:#ffffff;fill-opacity:1;fill-rule:nonzero;stroke:none"
         d="m 0,0 c 0,-0.199 -0.172,-0.359 -0.383,-0.359 -0.209,0 -0.382,0.16 -0.382,0.359 v 5.361 c 0,0.198 0.173,0.359 0.382,0.359 C -0.172,5.72 0,5.559 0,5.361 Z" />
    </g>
    <g
       transform="matrix(0.35277777,0,0,-0.35277777,123.99814,180.78388)"
       id="g1982">
      <path
         inkscape:connector-curvature="0"
         id="path1984"
         style="fill:#ffffff;fill-opacity:1;fill-rule:nonzero;stroke:none"
         d="m 0,0 c 0,-0.199 -0.17,-0.358 -0.383,-0.358 -0.209,0 -0.382,0.159 -0.382,0.358 v 5.361 c 0,0.198 0.173,0.36 0.382,0.36 C -0.17,5.721 0,5.559 0,5.361 Z" />
    </g>
    <g
       transform="matrix(0.35277777,0,0,-0.35277777,123.99814,179.5178)"
       id="g1986">
      <path
         inkscape:connector-curvature="0"
         id="path1988"
         style="fill:#ffffff;fill-opacity:1;fill-rule:nonzero;stroke:none"
         d="m 0,0 c 0,-0.196 -0.17,-0.358 -0.383,-0.358 -0.209,0 -0.382,0.162 -0.382,0.358 v 5.522 c 0,0.198 0.16,0.071 0.371,0.071 L -0.398,5.589 C -0.043,5.507 0,5.243 0,5.046 Z" />
    </g>
    <g
       transform="matrix(0.35277777,0,0,-0.35277777,121.41605,178.99588)"
       id="g1990">
      <path
         inkscape:connector-curvature="0"
         id="path1992"
         style="fill:#ffffff;fill-opacity:1;fill-rule:nonzero;stroke:none"
         d="m 0,0 c 0,-0.199 -0.171,-0.36 -0.382,-0.36 -0.212,0 -0.382,0.161 -0.382,0.36 v 5.361 c 0,0.198 0.17,0.358 0.382,0.358 C -0.171,5.719 0,5.559 0,5.361 Z" />
    </g>
    <g
       transform="matrix(0.35277777,0,0,-0.35277777,121.26686,177.22026)"
       id="g1994">
      <path
         inkscape:connector-curvature="0"
         id="path1996"
         style="fill:#ffffff;fill-opacity:1;fill-rule:nonzero;stroke:none"
         d="m 0,0 c -0.193,0.047 -0.308,0.252 -0.259,0.457 0.051,0.205 0.249,0.332 0.441,0.285 l 7.257,-1.67 C 7.632,-0.975 7.749,-1.18 7.699,-1.385 7.648,-1.59 7.453,-1.717 7.259,-1.671 Z" />
    </g>
    <g
       transform="matrix(0.35277777,0,0,-0.35277777,118.20867,181.32956)"
       id="g1998">
      <path
         inkscape:connector-curvature="0"
         id="path2000"
         style="fill:#ffffff;fill-opacity:1;fill-rule:nonzero;stroke:none"
         d="M 0,0 C -0.182,0.072 -0.268,0.291 -0.192,0.486 -0.113,0.682 0.1,0.783 0.284,0.711 L 7.221,-2.102 C 7.405,-2.174 7.491,-2.393 7.416,-2.588 7.338,-2.785 7.124,-2.885 6.942,-2.813 Z" />
    </g>
    <g
       transform="matrix(0.35277777,0,0,-0.35277777,120.77766,182.32934)"
       id="g2002">
      <path
         inkscape:connector-curvature="0"
         id="path2004"
         style="fill:#ffffff;fill-opacity:1;fill-rule:nonzero;stroke:none"
         d="m 0,0 8.726,6.273 v 3.419 l -7.399,1.93 -8.346,-5.549 c 0,0 -0.624,-0.362 -0.624,-1.288 0,-1.251 0.021,-1.767 0.021,-1.767 z" />
    </g>
    <g
       transform="matrix(0.35277777,0,0,-0.35277777,120.09278,178.8002)"
       id="g2006">
      <path
         inkscape:connector-curvature="0"
         id="path2008"
         style="fill:none;stroke:#231f20;stroke-width:0.75;stroke-linecap:butt;stroke-linejoin:miter;stroke-miterlimit:4;stroke-dasharray:none;stroke-opacity:1"
         d="M 0,0 C 0,0 8.07,-2.344 8.247,-2.496 8.359,-2.592 8.362,-2.552 8.525,-2.834 8.684,-3.115 8.691,-6.035 8.691,-6.035" />
    </g>
    <g
       transform="matrix(0.35277777,0,0,-0.35277777,123.81039,179.08198)"
       id="g2010">
      <path
         inkscape:connector-curvature="0"
         id="path2012"
         style="fill:#ffffff;fill-opacity:1;fill-rule:nonzero;stroke:none"
         d="M 0,0 -7.361,1.84 V 2.986 L 0,1.146 Z" />
    </g>
    <g
       transform="matrix(0.35277777,0,0,-0.35277777,121.48908,178.76987)"
       id="g2014">
      <path
         inkscape:connector-curvature="0"
         id="path2016"
         style="fill:none;stroke:#231f20;stroke-width:0.75;stroke-linecap:butt;stroke-linejoin:miter;stroke-miterlimit:4;stroke-dasharray:none;stroke-opacity:1"
         d="M 0,0 C 0,0 0.522,0.844 1.206,0.844 1.89,0.844 3.304,0.412 3.464,0.09 3.624,-0.232 2.814,-0.885 2.492,-1.005 2.17,-1.127 -0.402,-0.563 0,0 Z" />
    </g>
    <g
       transform="matrix(0.35277777,0,0,-0.35277777,119.00206,180.7253)"
       id="g2018">
      <path
         inkscape:connector-curvature="0"
         id="path2020"
         style="fill:none;stroke:#231f20;stroke-width:0.75;stroke-linecap:butt;stroke-linejoin:miter;stroke-miterlimit:4;stroke-dasharray:none;stroke-opacity:1"
         d="m 0,0 c 0,0 4.048,-1.813 4.972,-1.691 0.926,0.12 4.627,2.935 4.627,2.935" />
    </g>
    <path
       inkscape:connector-curvature="0"
       id="path2022"
       style="fill:#ffffff;fill-opacity:1;fill-rule:nonzero;stroke:none;stroke-width:0.35277775"
       d="m 118.0985,175.74009 h -0.87277 v -0.26176 h 0.87277 z" />
    <g
       transform="matrix(0.35277777,0,0,-0.35277777,117.86312,176.38172)"
       id="g2024">
      <path
         inkscape:connector-curvature="0"
         id="path2026"
         style="fill:#ffffff;fill-opacity:1;fill-rule:nonzero;stroke:none"
         d="M 0,0 H -1.156 L -1.415,1.406 H 0.276 Z" />
    </g>
    <g
       transform="matrix(0.35277777,0,0,-0.35277777,117.4466,176.51954)"
       id="g2028">
      <path
         inkscape:connector-curvature="0"
         id="path2030"
         style="fill:#ffffff;fill-opacity:1;fill-rule:nonzero;stroke:none"
         d="M 0,0 H 1.156 L 2.117,-1.84 H -0.897 Z" />
    </g>
    <g
       transform="matrix(0.35277777,0,0,-0.35277777,118.46358,178.94318)"
       id="g2032">
      <path
         inkscape:connector-curvature="0"
         id="path2034"
         style="fill:#ffffff;fill-opacity:1;fill-rule:nonzero;stroke:none"
         d="M 0,0 C 0,-0.347 -0.266,-0.629 -0.592,-0.629 H -3.95 c -0.329,0 -0.592,0.282 -0.592,0.629 v 3.987 c 0,0.349 0.263,0.631 0.592,0.631 h 3.358 C -0.266,4.618 0,4.336 0,3.987 Z" />
    </g>
    <path
       inkscape:connector-curvature="0"
       id="path2036"
       style="fill:#231f20;fill-opacity:1;fill-rule:nonzero;stroke:none;stroke-width:0.35277775"
       d="m 117.77924,178.55278 h -0.23319 v -0.75106 h 0.23319 z" />
    <path
       inkscape:connector-curvature="0"
       id="path2038"
       style="fill:#231f20;fill-opacity:1;fill-rule:nonzero;stroke:none;stroke-width:0.35277775"
       d="m 117.28711,178.06136 h 0.75072 v 0.23319 h -0.75072 z" />
  </g>
</svg>
