<?xml version="1.0" encoding="UTF-8" standalone="no"?>
<!-- Created with Inkscape (http://www.inkscape.org/) -->

<svg
   xmlns:dc="http://purl.org/dc/elements/1.1/"
   xmlns:cc="http://creativecommons.org/ns#"
   xmlns:rdf="http://www.w3.org/1999/02/22-rdf-syntax-ns#"
   xmlns:svg="http://www.w3.org/2000/svg"
   xmlns="http://www.w3.org/2000/svg"
   xmlns:sodipodi="http://sodipodi.sourceforge.net/DTD/sodipodi-0.dtd"
   xmlns:inkscape="http://www.inkscape.org/namespaces/inkscape"
   width="19.999678mm"
   height="20.000031mm"
   viewBox="0 0 19.999678 20.000031"
   version="1.1"
   id="svg12210"
   inkscape:version="0.92.4 (5da689c313, 2019-01-14)"
   sodipodi:docname="spi.svg">
  <defs
     id="defs12204" />
  <sodipodi:namedview
     id="base"
     pagecolor="#ffffff"
     bordercolor="#666666"
     borderopacity="1.0"
     inkscape:pageopacity="0.0"
     inkscape:pageshadow="2"
     inkscape:zoom="7.9195959"
     inkscape:cx="34.864346"
     inkscape:cy="36.613302"
     inkscape:document-units="mm"
     inkscape:current-layer="layer1"
     showgrid="false"
     inkscape:window-width="1920"
     inkscape:window-height="1017"
     inkscape:window-x="1912"
     inkscape:window-y="-8"
     inkscape:window-maximized="1" />
  <metadata
     id="metadata12207">
    <rdf:RDF>
      <cc:Work
         rdf:about="">
        <dc:format>image/svg+xml</dc:format>
        <dc:type
           rdf:resource="http://purl.org/dc/dcmitype/StillImage" />
        <dc:title></dc:title>
      </cc:Work>
    </rdf:RDF>
  </metadata>
  <g
     inkscape:label="Layer 1"
     inkscape:groupmode="layer"
     id="layer1"
     transform="translate(-65.5954,-94.988075)">
    <g
       transform="matrix(0.35277777,0,0,-0.35277777,85.595077,111.8632)"
       id="g2784">
      <path
         inkscape:connector-curvature="0"
         id="path2786"
         style="fill:#7b7979;fill-opacity:1;fill-rule:nonzero;stroke:none"
         d="m 0,0 c 0,-4.893 -3.966,-8.858 -8.857,-8.858 h -38.977 c -4.893,0 -8.858,3.965 -8.858,8.858 v 38.976 c 0,4.89 3.965,8.859 8.858,8.859 H -8.857 C -3.966,47.835 0,43.866 0,38.976 Z" />
    </g>
    <g
       transform="matrix(0.35277777,0,0,-0.35277777,77.042968,105.91079)"
       id="g2788">
      <path
         inkscape:connector-curvature="0"
         id="path2790"
         style="fill:#ffffff;fill-opacity:1;fill-rule:nonzero;stroke:none"
         d="m 0,0 c 0,0 3.293,3.786 8.15,4.446 v -0.99 l 1.072,0.166 c 0,0 0.575,-4.857 -1.154,-8.975" />
    </g>
    <g
       transform="matrix(0.35277777,0,0,-0.35277777,73.905186,105.91079)"
       id="g2792">
      <path
         inkscape:connector-curvature="0"
         id="path2794"
         style="fill:#ffffff;fill-opacity:1;fill-rule:nonzero;stroke:none"
         d="m 0,0 c 0,0 -3.293,3.786 -8.15,4.446 v -0.99 l -1.072,0.166 c 0,0 -0.577,-4.857 1.152,-8.975" />
    </g>
    <g
       transform="matrix(0.35277777,0,0,-0.35277777,75.474059,112.59169)"
       id="g2796">
      <path
         inkscape:connector-curvature="0"
         id="path2798"
         style="fill:#ffffff;fill-opacity:1;fill-rule:nonzero;stroke:none"
         d="m 0,0 c -10.046,0 -14.493,5.022 -14.493,5.022 l 0.743,0.492 -0.907,0.742 c 0.164,5.435 3.458,9.47 3.458,9.47 0,0 3.788,4.034 11.199,4.034 7.41,0 11.199,-4.034 11.199,-4.034 0,0 3.293,-4.035 3.457,-9.47 L 13.751,5.514 14.492,5.022 C 14.492,5.022 10.045,0 0,0" />
    </g>
    <g
       transform="matrix(0.35277777,0,0,-0.35277777,73.694683,109.53244)"
       id="g2800">
      <path
         inkscape:connector-curvature="0"
         id="path2802"
         style="fill:#7b7979;fill-opacity:1;fill-rule:nonzero;stroke:none"
         d="m 0,0 c 0,-0.622 -0.503,-1.125 -1.124,-1.125 -0.621,0 -1.124,0.503 -1.124,1.125 0,0.62 0.503,1.124 1.124,1.124 C -0.503,1.124 0,0.62 0,0" />
    </g>
    <g
       transform="matrix(0.35277777,0,0,-0.35277777,78.046162,109.53244)"
       id="g2804">
      <path
         inkscape:connector-curvature="0"
         id="path2806"
         style="fill:#7b7979;fill-opacity:1;fill-rule:nonzero;stroke:none"
         d="m 0,0 c 0,-0.622 -0.503,-1.125 -1.125,-1.125 -0.621,0 -1.123,0.503 -1.123,1.125 0,0.62 0.502,1.124 1.123,1.124 C -0.503,1.124 0,0.62 0,0" />
    </g>
    <g
       transform="matrix(0.35277777,0,0,-0.35277777,78.878506,107.01357)"
       id="g2808">
      <path
         inkscape:connector-curvature="0"
         id="path2810"
         style="fill:#7b7979;fill-opacity:1;fill-rule:nonzero;stroke:none"
         d="m 0,0 -2.478,2.218 c 0,0 1.5,1.695 3.652,2.184 L -0.685,2.152 1.109,2.086 -0.326,1.174 Z" />
    </g>
    <g
       transform="matrix(0.35277777,0,0,-0.35277777,72.068942,107.01357)"
       id="g2812">
      <path
         inkscape:connector-curvature="0"
         id="path2814"
         style="fill:#7b7979;fill-opacity:1;fill-rule:nonzero;stroke:none"
         d="m 0,0 2.479,2.218 c 0,0 -1.5,1.695 -3.652,2.184 L 0.686,2.152 -1.109,2.086 0.326,1.174 Z" />
    </g>
    <g
       transform="matrix(0.35277777,0,0,-0.35277777,75.19226,97.442392)"
       id="g2816">
      <path
         inkscape:connector-curvature="0"
         id="path2818"
         style="fill:none;stroke:#ffffff;stroke-width:0.81699997;stroke-linecap:butt;stroke-linejoin:miter;stroke-miterlimit:4;stroke-dasharray:none;stroke-opacity:1"
         d="M 0,0 -11.781,-13.508 1.93,-19.702 Z" />
    </g>
    <g
       transform="matrix(0.35277777,0,0,-0.35277777,75.225316,97.217248)"
       id="g2820">
      <path
         inkscape:connector-curvature="0"
         id="path2822"
         style="fill:none;stroke:#ffffff;stroke-width:0.81699997;stroke-linecap:butt;stroke-linejoin:miter;stroke-miterlimit:4;stroke-dasharray:none;stroke-opacity:1"
         d="M 0,0 12.5,-13.333 2.094,-20.625" />
    </g>
    <g
       transform="matrix(0.35277777,0,0,-0.35277777,71.036079,102.20764)"
       id="g2824">
      <path
         inkscape:connector-curvature="0"
         id="path2826"
         style="fill:none;stroke:#ffffff;stroke-width:0.81699997;stroke-linecap:butt;stroke-linejoin:miter;stroke-miterlimit:4;stroke-dasharray:none;stroke-opacity:1"
         d="M 0,0 9.598,5.789 24.172,0.66" />
    </g>
    <g
       transform="matrix(0.35277777,0,0,-0.35277777,75.263909,97.35282)"
       id="g2828">
      <path
         inkscape:connector-curvature="0"
         id="path2830"
         style="fill:none;stroke:#ffffff;stroke-width:0.81699997;stroke-linecap:butt;stroke-linejoin:miter;stroke-miterlimit:4;stroke-dasharray:none;stroke-opacity:1"
         d="M 0,0 -2.438,-8.125" />
    </g>
  </g>
</svg>
