<?xml version="1.0" encoding="UTF-8" standalone="no"?>
<!-- Created with Inkscape (http://www.inkscape.org/) -->

<svg
   xmlns:dc="http://purl.org/dc/elements/1.1/"
   xmlns:cc="http://creativecommons.org/ns#"
   xmlns:rdf="http://www.w3.org/1999/02/22-rdf-syntax-ns#"
   xmlns:svg="http://www.w3.org/2000/svg"
   xmlns="http://www.w3.org/2000/svg"
   xmlns:sodipodi="http://sodipodi.sourceforge.net/DTD/sodipodi-0.dtd"
   xmlns:inkscape="http://www.inkscape.org/namespaces/inkscape"
   width="20.000031mm"
   height="20.000031mm"
   viewBox="0 0 20.000031 20.000031"
   version="1.1"
   id="svg11722"
   inkscape:version="0.92.4 (5da689c313, 2019-01-14)"
   sodipodi:docname="str.svg">
  <defs
     id="defs11716" />
  <sodipodi:namedview
     id="base"
     pagecolor="#ffffff"
     bordercolor="#666666"
     borderopacity="1.0"
     inkscape:pageopacity="0.0"
     inkscape:pageshadow="2"
     inkscape:zoom="0.98994949"
     inkscape:cx="-52.21977"
     inkscape:cy="110.16727"
     inkscape:document-units="mm"
     inkscape:current-layer="layer1"
     showgrid="false"
     inkscape:window-width="1920"
     inkscape:window-height="1017"
     inkscape:window-x="1912"
     inkscape:window-y="-8"
     inkscape:window-maximized="1" />
  <metadata
     id="metadata11719">
    <rdf:RDF>
      <cc:Work
         rdf:about="">
        <dc:format>image/svg+xml</dc:format>
        <dc:type
           rdf:resource="http://purl.org/dc/dcmitype/StillImage" />
        <dc:title></dc:title>
      </cc:Work>
    </rdf:RDF>
  </metadata>
  <g
     inkscape:label="Layer 1"
     inkscape:groupmode="layer"
     id="layer1"
     transform="translate(-92.05356,-116.15475)">
    <g
       transform="matrix(0.35277777,0,0,-0.35277777,112.05359,133.02987)"
       id="g2484">
      <path
         inkscape:connector-curvature="0"
         id="path2486"
         style="fill:#7b7979;fill-opacity:1;fill-rule:nonzero;stroke:none"
         d="m 0,0 c 0,-4.893 -3.967,-8.858 -8.859,-8.858 h -38.975 c -4.893,0 -8.859,3.965 -8.859,8.858 v 38.977 c 0,4.891 3.966,8.858 8.859,8.858 H -8.859 C -3.967,47.835 0,43.868 0,38.977 Z" />
    </g>
    <g
       transform="matrix(0.35277777,0,0,-0.35277777,103.62206,127.17665)"
       id="g2488">
      <path
         inkscape:connector-curvature="0"
         id="path2490"
         style="fill:#ffffff;fill-opacity:1;fill-rule:nonzero;stroke:none"
         d="m 0,0 c 0,0 3.293,3.786 8.152,4.446 v -0.99 l 1.071,0.166 c 0,0 0.576,-4.858 -1.153,-8.975" />
    </g>
    <g
       transform="matrix(0.35277777,0,0,-0.35277777,100.48494,127.17665)"
       id="g2492">
      <path
         inkscape:connector-curvature="0"
         id="path2494"
         style="fill:#ffffff;fill-opacity:1;fill-rule:nonzero;stroke:none"
         d="m 0,0 c 0,0 -3.293,3.786 -8.152,4.446 v -0.99 l -1.071,0.166 c 0,0 -0.576,-4.858 1.153,-8.975" />
    </g>
    <g
       transform="matrix(0.35277777,0,0,-0.35277777,102.05385,133.85773)"
       id="g2496">
      <path
         inkscape:connector-curvature="0"
         id="path2498"
         style="fill:#ffffff;fill-opacity:1;fill-rule:nonzero;stroke:none"
         d="m 0,0 c -10.047,0 -14.494,5.022 -14.494,5.022 l 0.744,0.493 -0.908,0.742 c 0.164,5.435 3.459,9.47 3.459,9.47 0,0 3.787,4.034 11.199,4.034 7.41,0 11.197,-4.034 11.197,-4.034 0,0 3.293,-4.035 3.457,-9.47 L 13.75,5.515 14.49,5.022 C 14.49,5.022 10.045,0 0,0" />
    </g>
    <g
       transform="matrix(0.35277777,0,0,-0.35277777,100.27412,130.79816)"
       id="g2500">
      <path
         inkscape:connector-curvature="0"
         id="path2502"
         style="fill:#7b7979;fill-opacity:1;fill-rule:nonzero;stroke:none"
         d="m 0,0 c 0,-0.622 -0.502,-1.125 -1.123,-1.125 -0.621,0 -1.125,0.503 -1.125,1.125 0,0.62 0.504,1.124 1.125,1.124 C -0.502,1.124 0,0.62 0,0" />
    </g>
    <g
       transform="matrix(0.35277777,0,0,-0.35277777,104.62595,130.79816)"
       id="g2504">
      <path
         inkscape:connector-curvature="0"
         id="path2506"
         style="fill:#7b7979;fill-opacity:1;fill-rule:nonzero;stroke:none"
         d="m 0,0 c 0,-0.622 -0.504,-1.125 -1.125,-1.125 -0.621,0 -1.123,0.503 -1.123,1.125 0,0.62 0.502,1.124 1.123,1.124 C -0.504,1.124 0,0.62 0,0" />
    </g>
    <g
       transform="matrix(0.35277777,0,0,-0.35277777,105.4583,128.27944)"
       id="g2508">
      <path
         inkscape:connector-curvature="0"
         id="path2510"
         style="fill:#7b7979;fill-opacity:1;fill-rule:nonzero;stroke:none"
         d="m 0,0 -2.479,2.218 c 0,0 1.5,1.695 3.651,2.184 L -0.686,2.152 1.109,2.086 -0.326,1.174 Z" />
    </g>
    <g
       transform="matrix(0.35277777,0,0,-0.35277777,98.648737,128.27944)"
       id="g2512">
      <path
         inkscape:connector-curvature="0"
         id="path2514"
         style="fill:#7b7979;fill-opacity:1;fill-rule:nonzero;stroke:none"
         d="m 0,0 2.479,2.218 c 0,0 -1.5,1.695 -3.653,2.184 L 0.684,2.152 -1.109,2.086 0.326,1.174 Z" />
    </g>
    <g
       transform="matrix(0.35277777,0,0,-0.35277777,108.74009,119.91045)"
       id="g2516">
      <path
         inkscape:connector-curvature="0"
         id="path2518"
         style="fill:#ffffff;fill-opacity:1;fill-rule:nonzero;stroke:none"
         d="M 0,0 C 0.486,1.623 -0.049,3.282 -1.35,3.898 -2.818,4.597 -4.703,3.7 -5.561,1.896 -5.908,1.163 -6.021,0.396 -5.949,-0.307 l -28.19,-14.219 c -0.521,0.477 -1.205,0.836 -2,0.994 -1.959,0.385 -3.8,-0.599 -4.113,-2.195 -0.277,-1.416 0.744,-2.833 2.344,-3.405 -0.485,-1.625 0.051,-3.282 1.349,-3.9 1.469,-0.698 3.356,0.199 4.211,2.003 0.348,0.733 0.461,1.504 0.389,2.202 l 28.191,14.221 c 0.522,-0.475 1.204,-0.838 1.997,-0.994 1.959,-0.383 3.8,0.598 4.115,2.195 C 2.621,-1.989 1.6,-0.571 0,0" />
    </g>
    <g
       transform="matrix(0.35277777,0,0,-0.35277777,108.74009,119.91045)"
       id="g2520">
      <path
         inkscape:connector-curvature="0"
         id="path2522"
         style="fill:none;stroke:#7b7979;stroke-width:1.64100003;stroke-linecap:butt;stroke-linejoin:miter;stroke-miterlimit:4;stroke-dasharray:none;stroke-opacity:1"
         d="M 0,0 C 0.486,1.623 -0.049,3.282 -1.35,3.898 -2.818,4.597 -4.703,3.7 -5.561,1.896 -5.908,1.163 -6.021,0.396 -5.949,-0.307 l -28.19,-14.219 c -0.521,0.477 -1.205,0.836 -2,0.994 -1.959,0.385 -3.8,-0.599 -4.113,-2.195 -0.277,-1.416 0.744,-2.833 2.344,-3.405 -0.485,-1.625 0.051,-3.282 1.349,-3.9 1.469,-0.698 3.356,0.199 4.211,2.003 0.348,0.733 0.461,1.504 0.389,2.202 l 28.191,14.221 c 0.522,-0.475 1.204,-0.838 1.997,-0.994 1.959,-0.383 3.8,0.598 4.115,2.195 C 2.621,-1.989 1.6,-0.571 0,0 Z" />
    </g>
    <g
       transform="matrix(0.35277777,0,0,-0.35277777,97.891499,125.87064)"
       id="g2524">
      <path
         inkscape:connector-curvature="0"
         id="path2526"
         style="fill:#ffffff;fill-opacity:1;fill-rule:nonzero;stroke:none"
         d="m 0,0 c 0,0 -2.447,4.138 -1.289,10.004 1.158,5.869 6.826,5.602 10.176,5.734 3.347,0.135 7.211,5.735 12.365,0.801 C 25.889,12.098 25.275,7.485 23.842,4.67 22.52,2.543 20.057,1.177 15.682,1.312 11.904,1.428 12.043,-1.464 7.986,-2.798 5.15,-3.733 1.676,-3.199 0,0" />
    </g>
    <g
       transform="matrix(0.35277777,0,0,-0.35277777,97.891499,125.87064)"
       id="g2528">
      <path
         inkscape:connector-curvature="0"
         id="path2530"
         style="fill:none;stroke:#7b7979;stroke-width:1.57299995;stroke-linecap:butt;stroke-linejoin:miter;stroke-miterlimit:4;stroke-dasharray:none;stroke-opacity:1"
         d="m 0,0 c 0,0 -2.447,4.138 -1.289,10.004 1.158,5.869 6.826,5.602 10.176,5.734 3.347,0.135 7.211,5.735 12.365,0.801 C 25.889,12.098 25.275,7.485 23.842,4.67 22.52,2.543 20.057,1.177 15.682,1.312 11.904,1.428 12.043,-1.464 7.986,-2.798 5.15,-3.733 1.676,-3.199 0,0 Z" />
    </g>
    <g
       transform="matrix(0.35277777,0,0,-0.35277777,98.681122,124.86518)"
       id="g2532">
      <path
         inkscape:connector-curvature="0"
         id="path2534"
         style="fill:#7b7979;fill-opacity:1;fill-rule:nonzero;stroke:none"
         d="m 0,0 c 0,-0.294 -0.238,-0.534 -0.535,-0.534 -0.293,0 -0.531,0.24 -0.531,0.534 0,0.297 0.238,0.534 0.531,0.534 C -0.238,0.534 0,0.297 0,0" />
    </g>
    <g
       transform="matrix(0.35277777,0,0,-0.35277777,99.01873,125.54146)"
       id="g2536">
      <path
         inkscape:connector-curvature="0"
         id="path2538"
         style="fill:#7b7979;fill-opacity:1;fill-rule:nonzero;stroke:none"
         d="m 0,0 c 0,-0.291 -0.24,-0.532 -0.535,-0.532 -0.293,0 -0.531,0.241 -0.531,0.532 0,0.3 0.238,0.537 0.531,0.537 C -0.24,0.537 0,0.3 0,0" />
    </g>
    <g
       transform="matrix(0.35277777,0,0,-0.35277777,99.669851,125.974)"
       id="g2540">
      <path
         inkscape:connector-curvature="0"
         id="path2542"
         style="fill:#7b7979;fill-opacity:1;fill-rule:nonzero;stroke:none"
         d="m 0,0 c 0,-0.297 -0.238,-0.537 -0.533,-0.537 -0.295,0 -0.535,0.24 -0.535,0.537 0,0.293 0.24,0.533 0.535,0.533 C -0.238,0.533 0,0.293 0,0" />
    </g>
    <g
       transform="matrix(0.35277777,0,0,-0.35277777,100.68271,125.99929)"
       id="g2544">
      <path
         inkscape:connector-curvature="0"
         id="path2546"
         style="fill:#7b7979;fill-opacity:1;fill-rule:nonzero;stroke:none"
         d="m 0,0 c 0,-0.292 -0.238,-0.535 -0.533,-0.535 -0.295,0 -0.535,0.243 -0.535,0.535 0,0.298 0.24,0.535 0.535,0.535 C -0.238,0.535 0,0.298 0,0" />
    </g>
    <g
       transform="matrix(0.35277777,0,0,-0.35277777,101.38206,125.37315)"
       id="g2548">
      <path
         inkscape:connector-curvature="0"
         id="path2550"
         style="fill:#7b7979;fill-opacity:1;fill-rule:nonzero;stroke:none"
         d="m 0,0 c 0,-0.295 -0.24,-0.535 -0.535,-0.535 -0.293,0 -0.533,0.24 -0.533,0.535 0,0.297 0.24,0.534 0.533,0.534 C -0.24,0.534 0,0.297 0,0" />
    </g>
    <g
       transform="matrix(0.35277777,0,0,-0.35277777,100.394,125.39573)"
       id="g2552">
      <path
         inkscape:connector-curvature="0"
         id="path2554"
         style="fill:#7b7979;fill-opacity:1;fill-rule:nonzero;stroke:none"
         d="m 0,0 c 0,-0.292 -0.242,-0.535 -0.535,-0.535 -0.295,0 -0.535,0.243 -0.535,0.535 0,0.296 0.24,0.533 0.535,0.533 C -0.242,0.533 0,0.296 0,0" />
    </g>
    <g
       transform="matrix(0.35277777,0,0,-0.35277777,105.39286,122.7301)"
       id="g2556">
      <path
         inkscape:connector-curvature="0"
         id="path2558"
         style="fill:#7b7979;fill-opacity:1;fill-rule:nonzero;stroke:none"
         d="M 0,0 C 0.104,-0.275 0.416,-0.412 0.691,-0.304 0.963,-0.199 1.102,0.114 0.994,0.389 0.887,0.664 0.576,0.797 0.305,0.691 0.029,0.583 -0.109,0.278 0,0" />
    </g>
    <g
       transform="matrix(0.35277777,0,0,-0.35277777,105.27433,123.65131)"
       id="g2560">
      <path
         inkscape:connector-curvature="0"
         id="path2562"
         style="fill:#7b7979;fill-opacity:1;fill-rule:nonzero;stroke:none"
         d="M 0,0 C 0.107,-0.274 0.418,-0.412 0.693,-0.305 0.967,-0.197 1.102,0.113 0.996,0.388 0.889,0.666 0.578,0.799 0.305,0.69 0.031,0.584 -0.107,0.277 0,0" />
    </g>
    <g
       transform="matrix(0.35277777,0,0,-0.35277777,104.72861,124.43695)"
       id="g2564">
      <path
         inkscape:connector-curvature="0"
         id="path2566"
         style="fill:#7b7979;fill-opacity:1;fill-rule:nonzero;stroke:none"
         d="M 0,0 C 0.105,-0.275 0.418,-0.41 0.691,-0.302 0.967,-0.197 1.102,0.114 0.996,0.387 0.889,0.664 0.578,0.801 0.303,0.692 0.029,0.585 -0.107,0.276 0,0" />
    </g>
    <g
       transform="matrix(0.35277777,0,0,-0.35277777,103.74264,124.64607)"
       id="g2568">
      <path
         inkscape:connector-curvature="0"
         id="path2570"
         style="fill:#7b7979;fill-opacity:1;fill-rule:nonzero;stroke:none"
         d="M 0,0 C 0.105,-0.276 0.416,-0.41 0.689,-0.305 0.965,-0.2 1.102,0.111 0.992,0.386 0.887,0.663 0.576,0.797 0.303,0.693 0.027,0.585 -0.109,0.275 0,0" />
    </g>
    <g
       transform="matrix(0.35277777,0,0,-0.35277777,104.26009,123.90281)"
       id="g2572">
      <path
         inkscape:connector-curvature="0"
         id="path2574"
         style="fill:#7b7979;fill-opacity:1;fill-rule:nonzero;stroke:none"
         d="M 0,0 C 0.105,-0.274 0.416,-0.41 0.691,-0.304 0.965,-0.197 1.102,0.113 0.994,0.389 0.887,0.664 0.578,0.799 0.303,0.691 0.027,0.586 -0.109,0.276 0,0" />
    </g>
  </g>
</svg>
